<svg width="149" height="27" viewBox="0 0 149 27" fill="none" xmlns="http://www.w3.org/2000/svg">
<path d="M0.619995 6.31197C0.619995 5.29197 0.789995 4.42197 1.13 3.70197C1.49 2.96197 1.97 2.36197 2.57 1.90197C3.17 1.42197 3.87 1.07197 4.67 0.851972C5.49 0.631972 6.36 0.521973 7.28 0.521973C8.76 0.521973 9.85 0.721972 10.55 1.12197C11.25 1.50197 11.6 2.16197 11.6 3.10197C11.6 3.50197 11.51 3.86197 11.33 4.18197C11.17 4.50197 10.99 4.74197 10.79 4.90197C10.41 4.80197 10.01 4.72197 9.59 4.66197C9.19 4.58197 8.72 4.54197 8.18 4.54197C7.32 4.54197 6.65 4.69197 6.17 4.99197C5.69 5.27197 5.45 5.77197 5.45 6.49197V7.45197H10.37C10.49 7.67197 10.6 7.95197 10.7 8.29197C10.82 8.61197 10.88 8.97197 10.88 9.37197C10.88 10.072 10.72 10.582 10.4 10.902C10.1 11.202 9.69 11.352 9.17 11.352H5.72V20.862C5.52 20.922 5.2 20.982 4.75999 21.042C4.34 21.102 3.9 21.132 3.44 21.132C3 21.132 2.6 21.102 2.24 21.042C1.9 20.982 1.61 20.862 1.37 20.682C1.13 20.502 0.939995 20.262 0.799995 19.962C0.679995 19.642 0.619995 19.232 0.619995 18.732V6.31197Z" fill="white"/>
<path d="M19.1047 17.652C19.4447 17.652 19.8147 17.622 20.2147 17.562C20.6347 17.482 20.9447 17.382 21.1447 17.262V14.862L18.9847 15.042C18.4247 15.082 17.9647 15.202 17.6047 15.402C17.2447 15.602 17.0647 15.902 17.0647 16.302C17.0647 16.702 17.2147 17.032 17.5147 17.292C17.8347 17.532 18.3647 17.652 19.1047 17.652ZM18.8647 5.86197C19.9447 5.86197 20.9247 5.97197 21.8047 6.19197C22.7047 6.41197 23.4647 6.75197 24.0847 7.21197C24.7247 7.65197 25.2147 8.22197 25.5547 8.92197C25.8947 9.60197 26.0647 10.412 26.0647 11.352V18.072C26.0647 18.592 25.9147 19.022 25.6147 19.362C25.3347 19.682 24.9947 19.962 24.5947 20.202C23.2947 20.982 21.4647 21.372 19.1047 21.372C18.0447 21.372 17.0847 21.272 16.2247 21.072C15.3847 20.872 14.6547 20.572 14.0347 20.172C13.4347 19.772 12.9647 19.262 12.6247 18.642C12.3047 18.022 12.1447 17.302 12.1447 16.482C12.1447 15.102 12.5547 14.042 13.3747 13.302C14.1947 12.562 15.4647 12.102 17.1847 11.922L21.1147 11.502V11.292C21.1147 10.712 20.8547 10.302 20.3347 10.062C19.8347 9.80197 19.1047 9.67197 18.1447 9.67197C17.3847 9.67197 16.6447 9.75197 15.9247 9.91197C15.2047 10.072 14.5547 10.272 13.9747 10.512C13.7147 10.332 13.4947 10.062 13.3147 9.70197C13.1347 9.32197 13.0447 8.93197 13.0447 8.53197C13.0447 8.01197 13.1647 7.60197 13.4047 7.30197C13.6647 6.98197 14.0547 6.71197 14.5747 6.49197C15.1547 6.27197 15.8347 6.11197 16.6147 6.01197C17.4147 5.91197 18.1647 5.86197 18.8647 5.86197Z" fill="white"/>
<path d="M38.423 11.652C38.423 11.032 38.243 10.582 37.883 10.302C37.543 10.002 37.073 9.85197 36.473 9.85197C36.073 9.85197 35.673 9.90197 35.273 10.002C34.893 10.102 34.563 10.252 34.283 10.452V20.862C34.083 20.922 33.763 20.982 33.323 21.042C32.903 21.102 32.463 21.132 32.003 21.132C31.563 21.132 31.163 21.102 30.803 21.042C30.463 20.982 30.173 20.862 29.933 20.682C29.693 20.502 29.503 20.262 29.363 19.962C29.243 19.642 29.183 19.232 29.183 18.732V9.73197C29.183 9.19197 29.293 8.75197 29.513 8.41197C29.753 8.07197 30.073 7.76197 30.473 7.48197C31.153 7.00197 32.003 6.61197 33.023 6.31197C34.063 6.01197 35.213 5.86197 36.473 5.86197C38.733 5.86197 40.473 6.36197 41.693 7.36197C42.913 8.34197 43.523 9.71197 43.523 11.472V20.862C43.323 20.922 43.003 20.982 42.563 21.042C42.143 21.102 41.703 21.132 41.243 21.132C40.803 21.132 40.403 21.102 40.043 21.042C39.703 20.982 39.413 20.862 39.173 20.682C38.933 20.502 38.743 20.262 38.603 19.962C38.483 19.642 38.423 19.232 38.423 18.732V11.652Z" fill="white"/>
<path d="M54.8933 9.88197C54.3933 9.88197 53.9133 9.96197 53.4533 10.122C53.0133 10.282 52.6233 10.522 52.2833 10.842C51.9633 11.142 51.7033 11.522 51.5033 11.982C51.3033 12.442 51.2033 12.982 51.2033 13.602C51.2033 14.842 51.5533 15.772 52.2533 16.392C52.9733 17.012 53.8433 17.322 54.8633 17.322C55.4633 17.322 55.9833 17.252 56.4233 17.112C56.8633 16.972 57.2533 16.822 57.5933 16.662C57.9933 16.942 58.2933 17.252 58.4933 17.592C58.6933 17.912 58.7933 18.302 58.7933 18.762C58.7933 19.582 58.4033 20.222 57.6233 20.682C56.8433 21.122 55.7633 21.342 54.3833 21.342C53.1233 21.342 51.9833 21.162 50.9633 20.802C49.9433 20.422 49.0633 19.902 48.3233 19.242C47.6033 18.562 47.0433 17.752 46.6433 16.812C46.2433 15.872 46.0433 14.832 46.0433 13.692C46.0433 12.372 46.2533 11.222 46.6733 10.242C47.1133 9.24197 47.7033 8.42197 48.4433 7.78197C49.1833 7.14197 50.0333 6.66197 50.9933 6.34197C51.9733 6.02197 53.0033 5.86197 54.0833 5.86197C55.5233 5.86197 56.6333 6.12197 57.4133 6.64197C58.1933 7.16197 58.5833 7.83197 58.5833 8.65197C58.5833 9.03197 58.4933 9.39197 58.3133 9.73197C58.1333 10.052 57.9233 10.332 57.6833 10.572C57.3433 10.412 56.9333 10.262 56.4533 10.122C55.9733 9.96197 55.4533 9.88197 54.8933 9.88197Z" fill="white"/>
<path d="M63.631 17.172C63.411 16.672 63.171 16.112 62.911 15.492C62.671 14.872 62.411 14.162 62.131 13.362C61.871 12.562 61.591 11.652 61.291 10.632C61.011 9.59197 60.711 8.40197 60.391 7.06197C60.671 6.78197 61.041 6.54197 61.501 6.34197C61.981 6.12197 62.501 6.01197 63.061 6.01197C63.761 6.01197 64.341 6.16197 64.801 6.46197C65.261 6.74197 65.601 7.28197 65.821 8.08197L68.191 16.332H68.311C68.551 15.652 68.781 14.912 69.001 14.112C69.241 13.312 69.471 12.492 69.691 11.652C69.911 10.792 70.111 9.94197 70.291 9.10197C70.491 8.24197 70.661 7.40197 70.801 6.58197C71.521 6.20197 72.311 6.01197 73.171 6.01197C73.871 6.01197 74.451 6.16197 74.911 6.46197C75.371 6.76197 75.601 7.28197 75.601 8.02197C75.601 8.56197 75.531 9.19197 75.391 9.91197C75.251 10.612 75.061 11.362 74.821 12.162C74.601 12.962 74.331 13.792 74.011 14.652C73.711 15.492 73.391 16.322 73.051 17.142C72.711 17.962 72.361 18.742 72.001 19.482C71.641 20.202 71.291 20.852 70.951 21.432C70.391 22.412 69.871 23.212 69.391 23.832C68.911 24.452 68.451 24.932 68.011 25.272C67.571 25.632 67.131 25.872 66.691 25.992C66.251 26.132 65.791 26.202 65.311 26.202C64.471 26.202 63.791 25.952 63.271 25.452C62.751 24.952 62.441 24.302 62.341 23.502C62.981 23.002 63.621 22.442 64.261 21.822C64.901 21.222 65.481 20.602 66.001 19.962C65.661 19.862 65.291 19.632 64.891 19.272C64.511 18.892 64.091 18.192 63.631 17.172Z" fill="white"/>
<path d="M75.7733 18.462C75.7733 17.622 76.0333 16.922 76.5533 16.362C77.0733 15.802 77.7833 15.522 78.6833 15.522C79.5833 15.522 80.2933 15.802 80.8133 16.362C81.3333 16.922 81.5933 17.622 81.5933 18.462C81.5933 19.302 81.3333 20.002 80.8133 20.562C80.2933 21.122 79.5833 21.402 78.6833 21.402C77.7833 21.402 77.0733 21.122 76.5533 20.562C76.0333 20.002 75.7733 19.302 75.7733 18.462Z" fill="white"/>
<path d="M96.2682 16.542C96.2682 18.062 95.6982 19.252 94.5582 20.112C93.4182 20.972 91.7382 21.402 89.5182 21.402C88.6782 21.402 87.8982 21.342 87.1782 21.222C86.4582 21.102 85.8382 20.922 85.3182 20.682C84.8182 20.422 84.4182 20.102 84.1182 19.722C83.8382 19.342 83.6982 18.892 83.6982 18.372C83.6982 17.892 83.7982 17.492 83.9982 17.172C84.1982 16.832 84.4382 16.552 84.7182 16.332C85.2982 16.652 85.9582 16.942 86.6982 17.202C87.4582 17.442 88.3282 17.562 89.3082 17.562C89.9282 17.562 90.3982 17.472 90.7182 17.292C91.0582 17.112 91.2282 16.872 91.2282 16.572C91.2282 16.292 91.1082 16.072 90.8682 15.912C90.6282 15.752 90.2282 15.622 89.6682 15.522L88.7682 15.342C87.0282 15.002 85.7282 14.472 84.8682 13.752C84.0282 13.012 83.6082 11.962 83.6082 10.602C83.6082 9.86197 83.7682 9.19197 84.0882 8.59197C84.4082 7.99197 84.8582 7.49197 85.4382 7.09197C86.0182 6.69197 86.7082 6.38197 87.5082 6.16197C88.3282 5.94197 89.2282 5.83197 90.2082 5.83197C90.9482 5.83197 91.6382 5.89197 92.2782 6.01197C92.9382 6.11197 93.5082 6.27197 93.9882 6.49197C94.4682 6.71197 94.8482 7.00197 95.1282 7.36197C95.4082 7.70197 95.5482 8.11197 95.5482 8.59197C95.5482 9.05197 95.4582 9.45197 95.2782 9.79197C95.1182 10.112 94.9082 10.382 94.6482 10.602C94.4882 10.502 94.2482 10.402 93.9282 10.302C93.6082 10.182 93.2582 10.082 92.8782 10.002C92.4982 9.90197 92.1082 9.82197 91.7082 9.76197C91.3282 9.70197 90.9782 9.67197 90.6582 9.67197C89.9982 9.67197 89.4882 9.75197 89.1282 9.91197C88.7682 10.052 88.5882 10.282 88.5882 10.602C88.5882 10.822 88.6882 11.002 88.8882 11.142C89.0882 11.282 89.4682 11.412 90.0282 11.532L90.9582 11.742C92.8782 12.182 94.2382 12.792 95.0382 13.572C95.8582 14.332 96.2682 15.322 96.2682 16.542Z" fill="white"/>
<path d="M113.134 20.862C112.934 20.922 112.614 20.982 112.174 21.042C111.754 21.102 111.314 21.132 110.854 21.132C110.414 21.132 110.014 21.102 109.654 21.042C109.314 20.982 109.024 20.862 108.784 20.682C108.544 20.502 108.354 20.262 108.214 19.962C108.094 19.642 108.034 19.232 108.034 18.732V12.072C108.034 11.252 107.824 10.682 107.404 10.362C107.004 10.022 106.504 9.85197 105.904 9.85197C105.504 9.85197 105.124 9.90197 104.764 10.002C104.404 10.102 104.114 10.222 103.894 10.362V20.862C103.694 20.922 103.374 20.982 102.934 21.042C102.514 21.102 102.074 21.132 101.614 21.132C101.174 21.132 100.774 21.102 100.414 21.042C100.074 20.982 99.7838 20.862 99.5438 20.682C99.3038 20.502 99.1138 20.262 98.9738 19.962C98.8538 19.642 98.7938 19.232 98.7938 18.732V1.33197C99.0138 1.29197 99.3338 1.24197 99.7538 1.18197C100.194 1.10197 100.634 1.06197 101.074 1.06197C101.514 1.06197 101.904 1.09197 102.244 1.15197C102.604 1.21197 102.904 1.33197 103.144 1.51197C103.384 1.69197 103.564 1.94197 103.684 2.26197C103.824 2.56197 103.894 2.96197 103.894 3.46197V6.40197C104.154 6.30197 104.544 6.19197 105.064 6.07197C105.604 5.93197 106.194 5.86197 106.834 5.86197C108.814 5.86197 110.354 6.36197 111.454 7.36197C112.574 8.34197 113.134 9.81197 113.134 11.772V20.862Z" fill="white"/>
<path d="M131.373 13.602C131.373 14.842 131.183 15.952 130.803 16.932C130.423 17.892 129.883 18.702 129.183 19.362C128.503 20.022 127.683 20.522 126.723 20.862C125.763 21.202 124.693 21.372 123.513 21.372C122.333 21.372 121.263 21.192 120.303 20.832C119.343 20.472 118.513 19.962 117.813 19.302C117.133 18.622 116.603 17.802 116.223 16.842C115.843 15.882 115.653 14.802 115.653 13.602C115.653 12.422 115.843 11.352 116.223 10.392C116.603 9.43197 117.133 8.62197 117.813 7.96197C118.513 7.28197 119.343 6.76197 120.303 6.40197C121.263 6.04197 122.333 5.86197 123.513 5.86197C124.693 5.86197 125.763 6.05197 126.723 6.43197C127.683 6.79197 128.503 7.31197 129.183 7.99197C129.883 8.65197 130.423 9.46197 130.803 10.422C131.183 11.382 131.373 12.442 131.373 13.602ZM120.873 13.602C120.873 14.822 121.103 15.762 121.563 16.422C122.043 17.062 122.703 17.382 123.543 17.382C124.383 17.382 125.023 17.052 125.463 16.392C125.923 15.732 126.153 14.802 126.153 13.602C126.153 12.402 125.923 11.482 125.463 10.842C125.003 10.182 124.353 9.85197 123.513 9.85197C122.673 9.85197 122.023 10.182 121.563 10.842C121.103 11.482 120.873 12.402 120.873 13.602Z" fill="white"/>
<path d="M140.551 5.86197C141.751 5.86197 142.861 6.02197 143.881 6.34197C144.921 6.64197 145.811 7.11197 146.551 7.75197C147.291 8.39197 147.871 9.20197 148.291 10.182C148.711 11.142 148.921 12.292 148.921 13.632C148.921 14.912 148.741 16.032 148.381 16.992C148.021 17.952 147.511 18.762 146.851 19.422C146.191 20.062 145.391 20.542 144.451 20.862C143.531 21.182 142.501 21.342 141.361 21.342C140.501 21.342 139.701 21.212 138.961 20.952V25.932C138.761 25.992 138.441 26.052 138.001 26.112C137.561 26.192 137.111 26.232 136.651 26.232C136.211 26.232 135.811 26.202 135.451 26.142C135.111 26.082 134.821 25.962 134.581 25.782C134.341 25.602 134.161 25.352 134.041 25.032C133.921 24.732 133.861 24.332 133.861 23.832V9.43197C133.861 8.89197 133.971 8.45197 134.191 8.11197C134.431 7.77197 134.751 7.46197 135.151 7.18197C135.771 6.78197 136.541 6.46197 137.461 6.22197C138.381 5.98197 139.411 5.86197 140.551 5.86197ZM140.611 17.322C142.671 17.322 143.701 16.092 143.701 13.632C143.701 12.352 143.441 11.402 142.921 10.782C142.421 10.162 141.691 9.85197 140.731 9.85197C140.351 9.85197 140.011 9.90197 139.711 10.002C139.411 10.082 139.151 10.182 138.931 10.302V16.902C139.171 17.022 139.431 17.122 139.711 17.202C139.991 17.282 140.291 17.322 140.611 17.322Z" fill="white"/>
</svg>
