<svg width="35" height="36" viewBox="0 0 35 36" fill="none" xmlns="http://www.w3.org/2000/svg">
<g clip-path="url(#clip0)">
<path d="M10.7456 29.7709V33.0418C10.7456 33.9709 10.2768 34.4667 9.42488 34.4667C8.5682 34.4667 8.09657 33.9566 8.09657 33.0022V29.7744H6.91799V33.0418C6.91799 34.6495 7.82607 35.5707 9.40934 35.5707C11.0076 35.5707 11.9242 34.6318 11.9242 32.9947V29.7709H10.7456ZM15.0818 29.7709L12.522 35.4817H13.7251L14.2192 34.3757L14.2546 34.2928H16.9138L17.4354 35.4817H18.6711L16.1351 29.8047L16.1123 29.7708L15.0818 29.7709ZM22.0895 29.7709L20.7705 33.7003L19.4865 29.7738H18.2322L20.2569 35.4852H21.2329L22.5545 31.7333L23.8752 35.4852H24.8595L26.8792 29.7738H25.657L24.3703 33.7003L23.051 29.7709H22.0895ZM33.6232 29.7709V35.4768H34.7862V29.7709H33.6232ZM0.263916 29.7712V35.4849H1.44283V33.1643H4.10473V35.4849H5.28397V29.7712H4.10473V32.0762H1.44283V29.7712H0.263916ZM27.8297 29.7751V35.481H32.2175V34.4406H28.9928V33.0259H31.1371V31.9852H28.9928V30.8154H32.1052V29.7751H27.8297ZM15.5812 31.2168L16.4217 33.1298H16.4187L16.4759 33.2618H14.6928L14.7493 33.1298H14.7483L15.5812 31.2168Z" fill="#232527"/>
<path d="M14.9444 0.570585C14.4768 0.611259 13.2131 0.894105 13.2131 0.894105H13.2126C10.3644 1.61806 9.69122 4.15978 9.69122 4.15978C9.55213 4.58719 9.48895 5.02521 9.47037 5.43788V5.99955C9.50817 6.86734 9.70442 7.51532 9.70442 7.51532C10.6558 11.6639 15.3337 18.4805 16.339 19.9125C16.4103 19.982 16.4675 19.9569 16.4675 19.9569C16.576 19.9275 16.5675 19.8251 16.5675 19.8251L16.5695 19.8256C18.118 4.60506 14.9444 0.570599 14.9444 0.570599L14.9444 0.570585ZM20.061 0.570585C20.061 0.570585 16.8734 4.60719 18.4231 19.8366H18.4252C18.4372 19.9333 18.5069 19.9534 18.5069 19.9534C18.6106 19.9929 18.6638 19.895 18.6638 19.895L18.6643 19.8959C19.6955 18.4274 24.3467 11.6479 25.2939 7.51524C25.2939 7.51524 25.8074 5.51504 25.3116 4.1597C25.3116 4.1597 24.6075 1.57862 21.7557 0.89653C21.7557 0.89653 20.9339 0.691364 20.061 0.570511L20.061 0.570585ZM5.35854 5.13982C5.35854 5.13982 2.64473 7.67279 2.50984 10.3581H2.51092V10.765C2.51298 10.7956 2.51456 10.8266 2.51652 10.8579C2.63342 13.0232 4.28991 14.3048 4.28991 14.3048C6.95887 16.8627 13.4214 20.0923 14.9231 20.8251C14.9442 20.8328 15.0218 20.8578 15.0673 20.8012C15.0673 20.8012 15.091 20.7835 15.1019 20.7517V20.6843C15.1008 20.6804 15.0987 20.6765 15.0967 20.6723H15.0973C10.9847 11.8375 5.3586 5.13974 5.3586 5.13974L5.35854 5.13982ZM29.6402 5.13982C29.6402 5.13982 24.0311 11.8166 19.9203 20.6334L19.9219 20.6329C19.9219 20.6329 19.8734 20.7351 19.9519 20.8012C19.9519 20.8012 19.9753 20.8185 20.0077 20.8256H20.0646C20.0748 20.8227 20.0858 20.8188 20.0966 20.8116V20.8126C21.6391 20.0597 28.0516 16.8514 30.708 14.3052C30.708 14.3052 32.3902 12.9767 32.4783 10.8438C32.6725 7.88139 29.6403 5.13973 29.6403 5.13973L29.6402 5.13982ZM34.6888 13.9109C34.6888 13.9109 25.5441 18.7368 20.8159 21.8731L20.8164 21.8736L20.8175 21.8746C20.8175 21.8746 20.7317 21.9298 20.7617 22.0288C20.7617 22.0288 20.8065 22.1087 20.8718 22.1087V22.1093C22.5654 22.1122 28.974 22.1192 29.1346 22.0897C29.1346 22.0897 29.9633 22.0572 30.9872 21.6704C30.9872 21.6704 33.2667 20.9577 34.4507 18.4127C34.4507 18.4127 34.9918 17.3485 34.9996 15.8535V15.7901C34.9956 15.2135 34.913 14.5753 34.6888 13.9109H34.6888ZM0.307445 13.9334C-0.52458 16.4663 0.595534 18.5073 0.597343 18.5106C1.76464 20.936 3.99283 21.6709 3.99283 21.6709C5.02156 22.0865 6.05053 22.1153 6.05053 22.1153C6.2112 22.1442 12.449 22.1182 14.1204 22.1104C14.1911 22.1099 14.2301 22.04 14.2301 22.04C14.235 22.0323 14.2393 22.0245 14.2412 22.0175V21.9541C14.2274 21.9117 14.1905 21.8818 14.1905 21.8818L14.1915 21.8812C9.4657 18.746 0.30752 13.9335 0.30752 13.9335L0.307445 13.9334ZM13.9295 22.8891L3.17188 23.2601C4.3385 25.3052 6.30322 26.8946 8.34989 26.4064C9.7623 26.0592 12.962 23.8644 14.0183 23.1228L14.0148 23.1199C14.0969 23.0473 14.0676 22.9891 14.0676 22.9891C14.0406 22.8941 13.9295 22.8942 13.9295 22.8942L13.9295 22.8891ZM21.0545 22.8968L21.0535 22.9007C21.0535 22.9007 20.959 22.9125 20.9326 22.9821C20.9326 22.9821 20.9097 23.0771 20.9732 23.1243L20.9722 23.1253C22.0021 23.8516 25.1243 25.9981 26.6284 26.4149C26.6284 26.4149 26.8563 26.4912 27.2382 26.5048H27.4676C28.4754 26.47 30.231 25.9609 31.8262 23.2656L21.0545 22.8968Z" fill="#CF0A2C"/>
</g>
<defs>
<clipPath id="clip0">
<rect width="35" height="35" fill="white" transform="translate(0 0.57074)"/>
</clipPath>
</defs>
</svg>
