<svg width="21" height="22" viewBox="0 0 21 22" fill="none" xmlns="http://www.w3.org/2000/svg">
<path d="M19.8509 16.4974C19.8509 13.476 15.7686 11.0263 10.7325 11.0263C5.69633 11.0263 1.61398 13.476 1.61398 16.4974" stroke="#424242" stroke-width="2" stroke-linecap="round"/>
<path fill-rule="evenodd" clip-rule="evenodd" d="M10.7325 11.0303C13.5022 11.0303 15.7477 8.7849 15.7477 6.01516C15.7477 3.24543 13.5022 1 10.7325 1C7.96277 1 5.71735 3.24543 5.71735 6.01516C5.71735 8.7849 7.96277 11.0303 10.7325 11.0303V11.0303Z" stroke="#424242" stroke-width="2" stroke-linecap="round"/>
<path d="M19.737 16.4974V19.4906C19.737 19.7577 19.6462 20.1448 19.3818 20.1448H2.08313C1.82416 20.1448 1.5 19.7546 1.5 19.4906V16.4974" stroke="#424242" stroke-width="2" stroke-linecap="round"/>
</svg>
