<svg width="25" height="24" viewBox="0 0 25 24" fill="none" xmlns="http://www.w3.org/2000/svg">
<path fill-rule="evenodd" clip-rule="evenodd" d="M14.772 22.4823C13.7609 22.4823 12.9415 21.6401 12.9415 20.6016C12.9415 19.5631 13.7609 18.7209 14.772 18.7209C15.7832 18.7209 16.6025 19.5631 16.6025 20.6016C16.6025 21.6401 15.7832 22.4823 14.772 22.4823V22.4823Z" stroke="#424242" stroke-width="2"/>
<path fill-rule="evenodd" clip-rule="evenodd" d="M6.99199 22.4823C5.98083 22.4823 5.16147 21.6401 5.16147 20.6016C5.16147 19.5631 5.98083 18.7209 6.99199 18.7209C8.00315 18.7209 8.82251 19.5631 8.82251 20.6016C8.82251 21.6401 8.00315 22.4823 6.99199 22.4823V22.4823Z" stroke="#424242" stroke-width="2"/>
<path fill-rule="evenodd" clip-rule="evenodd" d="M19.454 3.98129L1.85244 3.98129C1.59455 3.98129 1.444 4.01607 1.51952 4.25706L4.20219 12.8984C4.27623 13.1349 4.47846 13.4221 4.65535 13.4221L16.6511 13.4221C16.8275 13.4221 17.0287 13.0628 17.1043 12.8218L19.7869 4.34253C19.8615 4.10601 19.7134 3.98129 19.454 3.98129V3.98129Z" stroke="#424242" stroke-width="2"/>
<path d="M19.8062 3.91059L20.7214 1.61301" stroke="#424242" stroke-width="2" stroke-linecap="round"/>
<path d="M16.6026 13.314C16.7716 13.314 16.9649 13.5048 17.0374 13.7492L18.4332 17.5454" stroke="#424242" stroke-width="2" stroke-linecap="round"/>
<path d="M23.4227 1L20.9383 1" stroke="#424242" stroke-width="2" stroke-linecap="round"/>
<path d="M18.4537 17.894L4.04412 17.894" stroke="#424242" stroke-width="2" stroke-linecap="round"/>
</svg>
