<svg width="25" height="17" viewBox="0 0 25 17" fill="none" xmlns="http://www.w3.org/2000/svg">
<path d="M7.70514 2.88205H23.5" stroke="white" stroke-width="2.2" stroke-linecap="round"/>
<path d="M7.70514 8.76239H23.5" stroke="white" stroke-width="2.2" stroke-linecap="round"/>
<path d="M7.70514 14.6427H23.5" stroke="white" stroke-width="2.2" stroke-linecap="round"/>
<path fill-rule="evenodd" clip-rule="evenodd" d="M2.6282 2.58803C2.6282 2.91263 2.37549 3.17607 2.0641 3.17607C1.75272 3.17607 1.5 2.91263 1.5 2.58803C1.5 2.26344 1.75272 2 2.0641 2C2.37549 2 2.6282 2.26344 2.6282 2.58803V2.58803Z" stroke="white" stroke-width="2.2" stroke-linecap="round"/>
<path fill-rule="evenodd" clip-rule="evenodd" d="M2.6282 8.46837C2.6282 8.79297 2.37549 9.05641 2.0641 9.05641C1.75272 9.05641 1.5 8.79297 1.5 8.46837C1.5 8.14378 1.75272 7.88034 2.0641 7.88034C2.37549 7.88034 2.6282 8.14378 2.6282 8.46837V8.46837Z" stroke="white" stroke-width="2.2" stroke-linecap="round"/>
<path fill-rule="evenodd" clip-rule="evenodd" d="M2.6282 14.3487C2.6282 14.6733 2.37549 14.9367 2.0641 14.9367C1.75272 14.9367 1.5 14.6733 1.5 14.3487C1.5 14.0241 1.75272 13.7607 2.0641 13.7607C2.37549 13.7607 2.6282 14.0241 2.6282 14.3487V14.3487Z" stroke="white" stroke-width="2.2" stroke-linecap="round"/>
</svg>
