<svg width="115" height="29" viewBox="0 0 115 29" fill="none" xmlns="http://www.w3.org/2000/svg">
<circle cx="57.5002" cy="2.49995" r="2.5" transform="rotate(-180 57.5002 2.49995)" fill="#F8F8F8"/>
<circle cx="46.5002" cy="2.49995" r="2.5" transform="rotate(-180 46.5002 2.49995)" fill="#F8F8F8"/>
<circle cx="35.5002" cy="2.49995" r="2.5" transform="rotate(-180 35.5002 2.49995)" fill="#F8F8F8"/>
<circle cx="24.5002" cy="2.49995" r="2.5" transform="rotate(-180 24.5002 2.49995)" fill="#F8F8F8"/>
<circle cx="13.5002" cy="2.49995" r="2.5" transform="rotate(-180 13.5002 2.49995)" fill="#F8F8F8"/>
<circle cx="57.5002" cy="10.5" r="2.5" transform="rotate(-180 57.5002 10.5)" fill="#F8F8F8"/>
<circle cx="46.5002" cy="10.5" r="2.5" transform="rotate(-180 46.5002 10.5)" fill="#F8F8F8"/>
<circle cx="35.5002" cy="10.5" r="2.5" transform="rotate(-180 35.5002 10.5)" fill="#F8F8F8"/>
<circle cx="24.5002" cy="10.5" r="2.5" transform="rotate(-180 24.5002 10.5)" fill="#F8F8F8"/>
<circle cx="2.50018" cy="2.4999" r="2.5" transform="rotate(-180 2.50018 2.4999)" fill="#F8F8F8"/>
<circle cx="2.50018" cy="10.4999" r="2.5" transform="rotate(-180 2.50018 10.4999)" fill="#F8F8F8"/>
<circle cx="13.5002" cy="10.5" r="2.5" transform="rotate(-180 13.5002 10.5)" fill="#F8F8F8"/>
<circle cx="112.5" cy="2.49996" r="2.5" transform="rotate(-180 112.5 2.49996)" fill="#F8F8F8"/>
<circle cx="101.5" cy="2.49995" r="2.5" transform="rotate(-180 101.5 2.49995)" fill="#F8F8F8"/>
<circle cx="90.5002" cy="2.49995" r="2.5" transform="rotate(-180 90.5002 2.49995)" fill="#F8F8F8"/>
<circle cx="79.5002" cy="2.49995" r="2.5" transform="rotate(-180 79.5002 2.49995)" fill="#F8F8F8"/>
<circle cx="112.5" cy="10.5" r="2.5" transform="rotate(-180 112.5 10.5)" fill="#F8F8F8"/>
<circle cx="112.5" cy="18.5" r="2.5" transform="rotate(-180 112.5 18.5)" fill="#F8F8F8"/>
<circle cx="112.5" cy="26.5" r="2.5" transform="rotate(-180 112.5 26.5)" fill="#F8F8F8"/>
<circle cx="101.5" cy="10.5" r="2.5" transform="rotate(-180 101.5 10.5)" fill="#F8F8F8"/>
<circle cx="101.5" cy="18.5" r="2.5" transform="rotate(-180 101.5 18.5)" fill="#F8F8F8"/>
<circle cx="101.5" cy="26.5" r="2.5" transform="rotate(-180 101.5 26.5)" fill="#F8F8F8"/>
<circle cx="90.5002" cy="10.5" r="2.5" transform="rotate(-180 90.5002 10.5)" fill="#F8F8F8"/>
<circle cx="68.5002" cy="2.49995" r="2.5" transform="rotate(-180 68.5002 2.49995)" fill="#F8F8F8"/>
<circle cx="68.5002" cy="10.5" r="2.5" transform="rotate(-180 68.5002 10.5)" fill="#F8F8F8"/>
<circle cx="79.5002" cy="10.5" r="2.5" transform="rotate(-180 79.5002 10.5)" fill="#F8F8F8"/>
</svg>
