<svg width="55" height="37" viewBox="0 0 55 37" fill="none" xmlns="http://www.w3.org/2000/svg">
<circle cx="52.5" cy="2.5" r="2.5" transform="rotate(-180 52.5 2.5)" fill="#F0F0F0"/>
<circle cx="42.5" cy="2.5" r="2.5" transform="rotate(-180 42.5 2.5)" fill="#F0F0F0"/>
<circle cx="32.5" cy="2.5" r="2.5" transform="rotate(-180 32.5 2.5)" fill="#F0F0F0"/>
<circle cx="22.5" cy="2.5" r="2.5" transform="rotate(-180 22.5 2.5)" fill="#F0F0F0"/>
<circle cx="12.5" cy="2.5" r="2.5" transform="rotate(-180 12.5 2.5)" fill="#F0F0F0"/>
<circle cx="52.5" cy="10.5" r="2.5" transform="rotate(-180 52.5 10.5)" fill="#F0F0F0"/>
<circle cx="42.5" cy="10.5" r="2.5" transform="rotate(-180 42.5 10.5)" fill="#F0F0F0"/>
<circle cx="52.5" cy="18.5" r="2.5" transform="rotate(-180 52.5 18.5)" fill="#F0F0F0"/>
<circle cx="42.5" cy="18.5" r="2.5" transform="rotate(-180 42.5 18.5)" fill="#F0F0F0"/>
<circle cx="52.5" cy="26.5" r="2.5" transform="rotate(-180 52.5 26.5)" fill="#F0F0F0"/>
<circle cx="42.5" cy="26.5" r="2.5" transform="rotate(-180 42.5 26.5)" fill="#F0F0F0"/>
<circle cx="52.5" cy="34.5" r="2.5" transform="rotate(-180 52.5 34.5)" fill="#F0F0F0"/>
<circle cx="42.5" cy="34.5" r="2.5" transform="rotate(-180 42.5 34.5)" fill="#F0F0F0"/>
<circle cx="32.5" cy="10.5" r="2.5" transform="rotate(-180 32.5 10.5)" fill="#F0F0F0"/>
<circle cx="22.5" cy="10.5" r="2.5" transform="rotate(-180 22.5 10.5)" fill="#F0F0F0"/>
<circle cx="2.5" cy="2.5" r="2.5" transform="rotate(-180 2.5 2.5)" fill="#F0F0F0"/>
<circle cx="2.5" cy="10.5" r="2.5" transform="rotate(-180 2.5 10.5)" fill="#F0F0F0"/>
<circle cx="12.5" cy="10.5" r="2.5" transform="rotate(-180 12.5 10.5)" fill="#F0F0F0"/>
</svg>
