<svg width="82" height="13" viewBox="0 0 82 13" fill="none" xmlns="http://www.w3.org/2000/svg">
<circle cx="57.5002" cy="2.5" r="2.5" transform="rotate(-180 57.5002 2.5)" fill="#F8F8F8"/>
<circle cx="46.5002" cy="2.5" r="2.5" transform="rotate(-180 46.5002 2.5)" fill="#F8F8F8"/>
<circle cx="35.5002" cy="2.5" r="2.5" transform="rotate(-180 35.5002 2.5)" fill="#F8F8F8"/>
<circle cx="24.5002" cy="2.5" r="2.5" transform="rotate(-180 24.5002 2.5)" fill="#F8F8F8"/>
<circle cx="13.5002" cy="2.5" r="2.5" transform="rotate(-180 13.5002 2.5)" fill="#F8F8F8"/>
<circle cx="57.5002" cy="10.5" r="2.5" transform="rotate(-180 57.5002 10.5)" fill="#F8F8F8"/>
<circle cx="46.5002" cy="10.5" r="2.5" transform="rotate(-180 46.5002 10.5)" fill="#F8F8F8"/>
<circle cx="35.5002" cy="10.5" r="2.5" transform="rotate(-180 35.5002 10.5)" fill="#F8F8F8"/>
<circle cx="24.5002" cy="10.5" r="2.5" transform="rotate(-180 24.5002 10.5)" fill="#F8F8F8"/>
<circle cx="2.50018" cy="2.49994" r="2.5" transform="rotate(-180 2.50018 2.49994)" fill="#F8F8F8"/>
<circle cx="2.50018" cy="10.4999" r="2.5" transform="rotate(-180 2.50018 10.4999)" fill="#F8F8F8"/>
<circle cx="13.5002" cy="10.5" r="2.5" transform="rotate(-180 13.5002 10.5)" fill="#F8F8F8"/>
<circle cx="79.5002" cy="2.5" r="2.5" transform="rotate(-180 79.5002 2.5)" fill="#F8F8F8"/>
<circle cx="68.5002" cy="2.5" r="2.5" transform="rotate(-180 68.5002 2.5)" fill="#F8F8F8"/>
<circle cx="68.5002" cy="10.5" r="2.5" transform="rotate(-180 68.5002 10.5)" fill="#F8F8F8"/>
<circle cx="79.5002" cy="10.5" r="2.5" transform="rotate(-180 79.5002 10.5)" fill="#F8F8F8"/>
</svg>
