<svg id="Слой_1" data-name="Слой 1" xmlns="http://www.w3.org/2000/svg" viewBox="0 0 30 30"><defs><style>.cls-1{fill:#43484d;}</style></defs><title>fav-icon</title><path class="cls-1" d="M15,28h0a1.84,1.84,0,0,1-1.41-.67L3.15,14.88l-.06-.07a8.74,8.74,0,0,1-1.55-3.38,8.15,8.15,0,0,1-.15-1.58A7.72,7.72,0,0,1,8.95,2,7.51,7.51,0,0,1,15,5.15a7.51,7.51,0,0,1,6-3.15,7.72,7.72,0,0,1,7.56,7.85,8.23,8.23,0,0,1-.16,1.58,10,10,0,0,1-1.55,3.38L16.4,27.33A1.83,1.83,0,0,1,15,28ZM5.32,13.13,15,24.68,24.71,13.1a7.27,7.27,0,0,0,1-2.2,5.41,5.41,0,0,0,.1-1,4.93,4.93,0,0,0-4.77-5.06,4.84,4.84,0,0,0-4.58,3.63,1.45,1.45,0,0,1-1.37,1h-.26a1.39,1.39,0,0,1-1.32-1A4.84,4.84,0,0,0,8.95,4.79,4.93,4.93,0,0,0,4.17,9.85a5.4,5.4,0,0,0,.1,1A5.92,5.92,0,0,0,5.32,13.13Z"/></svg>