<svg width="22" height="20" viewBox="0 0 22 20" fill="none" xmlns="http://www.w3.org/2000/svg">
<path d="M2.27377 8.78939L10.733 18.8705C10.8789 19.0443 11.1173 19.042 11.2612 18.8705L19.7201 8.78939L19.3828 9.22045C19.8806 8.59944 20.2373 7.85101 20.4003 7.0282C20.4653 6.69899 20.5 6.35793 20.5 6.00882C20.5 3.24483 18.3535 1.00379 15.7053 1.00379C13.5208 1.00379 11.6778 2.52908 11.0997 4.61474L10.9003 4.61095C10.3217 2.52481 8.4787 1 6.29418 1C3.64653 1 1.5 3.24056 1.5 6.00503C1.5 6.35414 1.5342 6.69472 1.59928 7.02394C1.7622 7.84674 2.11892 8.59565 2.6172 9.21666" stroke="#424242" stroke-width="2" stroke-linecap="round" stroke-linejoin="round"/>
</svg>
