<svg id="Слой_7" data-name="Слой 7" xmlns="http://www.w3.org/2000/svg" viewBox="0 0 20 20"><defs><style>.cls-1{fill:none;}.cls-2{fill:#bbb;}</style></defs><title>guarantee-icon</title><path class="cls-1" d="M3.61,5.65,2.53,5.37s0,0,0,0a1.1,1.1,0,0,0-.06.18C2.35,6,2.07,7,1.75,8.14,1.31,9.62,1,10.63,1,10.77c.19.07,2.08.58,2.15.6s0,0,.07-.14.29-1,.58-2c.74-2.61.9-3.14.89-3.22Z"/><path class="cls-1" d="M3.61,5.65,2.53,5.37s0,0,0,0a1.1,1.1,0,0,0-.06.18C2.35,6,2.07,7,1.75,8.14,1.31,9.62,1,10.63,1,10.77c.19.07,2.08.58,2.15.6s0,0,.07-.14.29-1,.58-2c.74-2.61.9-3.14.89-3.22Z"/><path class="cls-2" d="M19.09,7.95a31.88,31.88,0,0,0-1-3.29c-.18-.18-.24-.17-2,.32-.79.22-1.64.47-1.69.52a.54.54,0,0,0-.11.18c0,.08-.08.11-.3.18l-.25.08-.47-.21a7.93,7.93,0,0,0-3-.87,2.14,2.14,0,0,0-.91.09,5.56,5.56,0,0,0-.69.23,1.63,1.63,0,0,1-.88.15c-.76,0-1.67.1-1.94.14s-.2,0-.25-.06a.37.37,0,0,0-.14-.12c-.14-.08-3.16-.92-3.29-.92A.41.41,0,0,0,2,4.45a.51.51,0,0,0-.16.2C1.69,5,0,10.88,0,11c0,.36,0,.37,1.78.87.84.24,1.62.44,1.71.44.24,0,.38-.15.5-.61,0-.14.08-.29.1-.36a0,0,0,0,0,0,0,1.24,1.24,0,0,1,.27.28,28.32,28.32,0,0,0,4.4,3.88,1.27,1.27,0,0,0,.55.11,1.45,1.45,0,0,0,.51-.09,1.16,1.16,0,0,0,.54-.51l.07-.12.12.1a1.43,1.43,0,0,0,.93.34,1,1,0,0,0,.58-.13,1.08,1.08,0,0,0,.58-.62l.06-.15H13a1.32,1.32,0,0,0,1.34-1.11c0-.17,0-.17.19-.21a1.37,1.37,0,0,0,1-.82l.07-.21.21,0,.23,0h0s0,0,.08.12a.53.53,0,0,0,.35.37h0a12.74,12.74,0,0,0,1.71-.43c1.46-.41,1.63-.46,1.73-.57a.41.41,0,0,0,.12-.26C20,11.18,19.52,9.49,19.09,7.95ZM3.79,9.19c-.29,1-.54,1.93-.58,2s-.06.14-.07.14-2-.53-2.15-.6c0-.14.31-1.15.74-2.64C2.07,7,2.35,6,2.47,5.59a1.1,1.1,0,0,1,.06-.18s0,0,0,0l1.07.29L4.68,6C4.69,6.05,4.54,6.58,3.79,9.19Zm10.63,3c-.2.15-.22.17-1.3-.74l-.19-.17c-.91-.75-1-.81-1.1-.81h-.06a.47.47,0,0,0-.43.34c0,.22.06.35.9,1,1.07.9,1.16,1,1.21,1.09a.48.48,0,0,1-.21.46c-.2.17-.33.15-.6-.08l-1-.82-.12-.1c-.86-.72-.89-.74-1.07-.74a.38.38,0,0,0-.31.13.45.45,0,0,0-.06.54s.41.36.81.68c.82.67,1,.83,1,1a.64.64,0,0,1-.32.43h0c-.13,0-.31-.13-1-.72L10,13.34,9.57,13c-.21-.2-.29-.24-.43-.24a.46.46,0,0,0-.37.2.39.39,0,0,0-.08.38,4.66,4.66,0,0,0,.5.55c.55.54.54.6.35.82s-.22.22-1.09-.46a18.8,18.8,0,0,1-3.94-3.87l-.08-.15L5,8.3a8.91,8.91,0,0,1,.6-1.9c.09,0,1.11-.13,1.44-.15H7.1l.18,0s0,0,0,0a3.21,3.21,0,0,0-.76,2.18A1.33,1.33,0,0,0,7,9.54c.62.42,1.46.11,2.3-.86l.25-.29.3-.07.23,0,.21,0h0c.11,0,.35.19,2.18,1.68l2.09,1.7,0,.17C14.69,12,14.63,12.07,14.43,12.24Zm1.15-1c-.18,0-.18,0-.27-.13s-1-.9-2.35-2l-.55-.44c-1.37-1.13-1.71-1.39-2-1.39a.58.58,0,0,0-.24.07l-.11,0a1.79,1.79,0,0,1-.59.11.76.76,0,0,0-.38.08,2.68,2.68,0,0,0-.31.36c-.45.6-.85.92-1.13.92h0a.38.38,0,0,1-.3-.23A2.09,2.09,0,0,1,7.82,7,3,3,0,0,1,9.65,5.78a1.92,1.92,0,0,1,.45,0,4.31,4.31,0,0,1,1,.13,9.41,9.41,0,0,1,1.82.67,5.77,5.77,0,0,0,.71.3,1.88,1.88,0,0,0,.5-.09c.18-.06.31-.08.35-.09.1.28,1.22,4.3,1.25,4.52C15.75,11.19,15.71,11.21,15.58,11.21Zm1.25.31c-.11-.31-1.45-5-1.53-5.38l2.15-.62a.43.43,0,0,1,0,.1l.16.53c.14.51.37,1.31.62,2.19.4,1.41.69,2.45.71,2.59C18.8,11,17,11.5,16.83,11.52Z"/></svg>