<svg width="149" height="27" viewBox="0 0 149 27" fill="none" xmlns="http://www.w3.org/2000/svg">
<path d="M0.619995 6.42C0.619995 5.4 0.789995 4.53001 1.13 3.81001C1.49 3.07001 1.97 2.47001 2.57 2.01C3.17 1.53001 3.87 1.18 4.67 0.960004C5.49 0.740005 6.36 0.630005 7.28 0.630005C8.76 0.630005 9.85 0.830005 10.55 1.23C11.25 1.61 11.6 2.27 11.6 3.21C11.6 3.61 11.51 3.97 11.33 4.29C11.17 4.61 10.99 4.85001 10.79 5.01C10.41 4.91 10.01 4.83 9.59 4.77001C9.18999 4.69001 8.72 4.65 8.18 4.65C7.32 4.65 6.65 4.8 6.17 5.1C5.69 5.38 5.45 5.88 5.45 6.60001V7.56001H10.37C10.49 7.78001 10.6 8.06001 10.7 8.4C10.82 8.72001 10.88 9.08 10.88 9.48001C10.88 10.18 10.72 10.69 10.4 11.01C10.1 11.31 9.68999 11.46 9.17 11.46H5.72V20.97C5.52 21.03 5.2 21.09 4.75999 21.15C4.33999 21.21 3.9 21.24 3.44 21.24C2.99999 21.24 2.6 21.21 2.24 21.15C1.9 21.09 1.61 20.97 1.37 20.79C1.13 20.61 0.939995 20.37 0.799995 20.07C0.679995 19.75 0.619995 19.34 0.619995 18.84V6.42Z" fill="url(#paint0_linear)"/>
<path d="M19.1047 17.76C19.4447 17.76 19.8147 17.73 20.2147 17.67C20.6347 17.59 20.9447 17.49 21.1447 17.37V14.97L18.9847 15.15C18.4247 15.19 17.9647 15.31 17.6047 15.51C17.2447 15.71 17.0647 16.01 17.0647 16.41C17.0647 16.81 17.2147 17.14 17.5147 17.4C17.8347 17.64 18.3647 17.76 19.1047 17.76ZM18.8647 5.97C19.9447 5.97 20.9247 6.08 21.8047 6.3C22.7047 6.52 23.4647 6.86 24.0847 7.32C24.7247 7.76 25.2147 8.33 25.5547 9.03C25.8947 9.71 26.0647 10.52 26.0647 11.46V18.18C26.0647 18.7 25.9147 19.13 25.6147 19.47C25.3347 19.79 24.9947 20.07 24.5947 20.31C23.2947 21.09 21.4647 21.48 19.1047 21.48C18.0447 21.48 17.0847 21.38 16.2247 21.18C15.3847 20.98 14.6547 20.68 14.0347 20.28C13.4347 19.88 12.9647 19.37 12.6247 18.75C12.3047 18.13 12.1447 17.41 12.1447 16.59C12.1447 15.21 12.5547 14.15 13.3747 13.41C14.1947 12.67 15.4647 12.21 17.1847 12.03L21.1147 11.61V11.4C21.1147 10.82 20.8547 10.41 20.3347 10.17C19.8347 9.91001 19.1047 9.78001 18.1447 9.78001C17.3847 9.78001 16.6447 9.86 15.9247 10.02C15.2047 10.18 14.5547 10.38 13.9747 10.62C13.7147 10.44 13.4947 10.17 13.3147 9.81001C13.1347 9.43001 13.0447 9.04 13.0447 8.64C13.0447 8.12 13.1647 7.71 13.4047 7.41001C13.6647 7.09 14.0547 6.82001 14.5747 6.60001C15.1547 6.38 15.8347 6.22 16.6147 6.12C17.4147 6.02 18.1647 5.97 18.8647 5.97Z" fill="url(#paint1_linear)"/>
<path d="M38.423 11.76C38.423 11.14 38.243 10.69 37.883 10.41C37.543 10.11 37.073 9.96 36.473 9.96C36.073 9.96 35.673 10.01 35.273 10.11C34.893 10.21 34.563 10.36 34.283 10.56V20.97C34.083 21.03 33.763 21.09 33.323 21.15C32.903 21.21 32.463 21.24 32.003 21.24C31.563 21.24 31.163 21.21 30.803 21.15C30.463 21.09 30.173 20.97 29.933 20.79C29.693 20.61 29.503 20.37 29.363 20.07C29.243 19.75 29.183 19.34 29.183 18.84V9.84C29.183 9.3 29.293 8.86001 29.513 8.52001C29.753 8.18001 30.073 7.87 30.473 7.59C31.153 7.11001 32.003 6.72 33.023 6.42C34.063 6.12 35.213 5.97 36.473 5.97C38.733 5.97 40.473 6.47 41.693 7.47C42.913 8.45001 43.523 9.82001 43.523 11.58V20.97C43.323 21.03 43.003 21.09 42.563 21.15C42.143 21.21 41.703 21.24 41.243 21.24C40.803 21.24 40.403 21.21 40.043 21.15C39.703 21.09 39.413 20.97 39.173 20.79C38.933 20.61 38.743 20.37 38.603 20.07C38.483 19.75 38.423 19.34 38.423 18.84V11.76Z" fill="url(#paint2_linear)"/>
<path d="M54.8933 9.99001C54.3933 9.99001 53.9133 10.07 53.4533 10.23C53.0133 10.39 52.6233 10.63 52.2833 10.95C51.9633 11.25 51.7033 11.63 51.5033 12.09C51.3033 12.55 51.2033 13.09 51.2033 13.71C51.2033 14.95 51.5533 15.88 52.2533 16.5C52.9733 17.12 53.8433 17.43 54.8633 17.43C55.4633 17.43 55.9833 17.36 56.4233 17.22C56.8633 17.08 57.2533 16.93 57.5933 16.77C57.9933 17.05 58.2933 17.36 58.4933 17.7C58.6933 18.02 58.7933 18.41 58.7933 18.87C58.7933 19.69 58.4033 20.33 57.6233 20.79C56.8433 21.23 55.7633 21.45 54.3833 21.45C53.1233 21.45 51.9833 21.27 50.9633 20.91C49.9433 20.53 49.0633 20.01 48.3233 19.35C47.6033 18.67 47.0433 17.86 46.6433 16.92C46.2433 15.98 46.0433 14.94 46.0433 13.8C46.0433 12.48 46.2533 11.33 46.6733 10.35C47.1133 9.35001 47.7033 8.53 48.4433 7.89001C49.1833 7.25 50.0333 6.77001 50.9933 6.45001C51.9733 6.13 53.0033 5.97 54.0833 5.97C55.5233 5.97 56.6333 6.23 57.4133 6.75C58.1933 7.27 58.5833 7.94 58.5833 8.76C58.5833 9.14001 58.4933 9.5 58.3133 9.84C58.1333 10.16 57.9233 10.44 57.6833 10.68C57.3433 10.52 56.9333 10.37 56.4533 10.23C55.9733 10.07 55.4533 9.99001 54.8933 9.99001Z" fill="url(#paint3_linear)"/>
<path d="M63.631 17.28C63.411 16.78 63.171 16.22 62.911 15.6C62.671 14.98 62.411 14.27 62.131 13.47C61.871 12.67 61.591 11.76 61.291 10.74C61.011 9.70001 60.711 8.51 60.391 7.17C60.671 6.89001 61.041 6.65 61.501 6.45001C61.981 6.23 62.501 6.12 63.061 6.12C63.761 6.12 64.341 6.27 64.801 6.57C65.261 6.85001 65.601 7.39001 65.821 8.19L68.191 16.44H68.311C68.551 15.76 68.781 15.02 69.001 14.22C69.241 13.42 69.471 12.6 69.691 11.76C69.911 10.9 70.111 10.05 70.291 9.21C70.491 8.35 70.661 7.51 70.801 6.69C71.521 6.31001 72.311 6.12 73.171 6.12C73.871 6.12 74.451 6.27 74.911 6.57C75.371 6.87 75.601 7.39001 75.601 8.13C75.601 8.67 75.531 9.3 75.391 10.02C75.251 10.72 75.061 11.47 74.821 12.27C74.601 13.07 74.331 13.9 74.011 14.76C73.711 15.6 73.391 16.43 73.051 17.25C72.711 18.07 72.361 18.85 72.001 19.59C71.641 20.31 71.291 20.96 70.951 21.54C70.391 22.52 69.871 23.32 69.391 23.94C68.911 24.56 68.451 25.04 68.011 25.38C67.571 25.74 67.131 25.98 66.691 26.1C66.251 26.24 65.791 26.31 65.311 26.31C64.471 26.31 63.791 26.06 63.271 25.56C62.751 25.06 62.441 24.41 62.341 23.61C62.981 23.11 63.621 22.55 64.261 21.93C64.901 21.33 65.481 20.71 66.001 20.07C65.661 19.97 65.291 19.74 64.891 19.38C64.511 19 64.091 18.3 63.631 17.28Z" fill="url(#paint4_linear)"/>
<path d="M75.7733 18.57C75.7733 17.73 76.0333 17.03 76.5533 16.47C77.0733 15.91 77.7833 15.63 78.6833 15.63C79.5833 15.63 80.2933 15.91 80.8133 16.47C81.3333 17.03 81.5933 17.73 81.5933 18.57C81.5933 19.41 81.3333 20.11 80.8133 20.67C80.2933 21.23 79.5833 21.51 78.6833 21.51C77.7833 21.51 77.0733 21.23 76.5533 20.67C76.0333 20.11 75.7733 19.41 75.7733 18.57Z" fill="url(#paint5_linear)"/>
<path d="M96.2682 16.65C96.2682 18.17 95.6982 19.36 94.5582 20.22C93.4182 21.08 91.7382 21.51 89.5182 21.51C88.6782 21.51 87.8982 21.45 87.1782 21.33C86.4582 21.21 85.8382 21.03 85.3182 20.79C84.8182 20.53 84.4182 20.21 84.1182 19.83C83.8382 19.45 83.6982 19 83.6982 18.48C83.6982 18 83.7982 17.6 83.9982 17.28C84.1982 16.94 84.4382 16.66 84.7182 16.44C85.2982 16.76 85.9582 17.05 86.6982 17.31C87.4582 17.55 88.3282 17.67 89.3082 17.67C89.9282 17.67 90.3982 17.58 90.7182 17.4C91.0582 17.22 91.2282 16.98 91.2282 16.68C91.2282 16.4 91.1082 16.18 90.8682 16.02C90.6282 15.86 90.2282 15.73 89.6682 15.63L88.7682 15.45C87.0282 15.11 85.7282 14.58 84.8682 13.86C84.0282 13.12 83.6082 12.07 83.6082 10.71C83.6082 9.97001 83.7682 9.3 84.0882 8.7C84.4082 8.1 84.8582 7.6 85.4382 7.20001C86.0182 6.8 86.7082 6.49001 87.5082 6.27C88.3282 6.05 89.2282 5.94 90.2082 5.94C90.9482 5.94 91.6382 6 92.2782 6.12C92.9382 6.22 93.5082 6.38 93.9882 6.60001C94.4682 6.82001 94.8482 7.11 95.1282 7.47C95.4082 7.81001 95.5482 8.22001 95.5482 8.7C95.5482 9.16 95.4582 9.56001 95.2782 9.90001C95.1182 10.22 94.9082 10.49 94.6482 10.71C94.4882 10.61 94.2482 10.51 93.9282 10.41C93.6082 10.29 93.2582 10.19 92.8782 10.11C92.4982 10.01 92.1082 9.93 91.7082 9.87C91.3282 9.81001 90.9782 9.78001 90.6582 9.78001C89.9982 9.78001 89.4882 9.86 89.1282 10.02C88.7682 10.16 88.5882 10.39 88.5882 10.71C88.5882 10.93 88.6882 11.11 88.8882 11.25C89.0882 11.39 89.4682 11.52 90.0282 11.64L90.9582 11.85C92.8782 12.29 94.2382 12.9 95.0382 13.68C95.8582 14.44 96.2682 15.43 96.2682 16.65Z" fill="url(#paint6_linear)"/>
<path d="M113.134 20.97C112.934 21.03 112.614 21.09 112.174 21.15C111.754 21.21 111.314 21.24 110.854 21.24C110.414 21.24 110.014 21.21 109.654 21.15C109.314 21.09 109.024 20.97 108.784 20.79C108.544 20.61 108.354 20.37 108.214 20.07C108.094 19.75 108.034 19.34 108.034 18.84V12.18C108.034 11.36 107.824 10.79 107.404 10.47C107.004 10.13 106.504 9.96 105.904 9.96C105.504 9.96 105.124 10.01 104.764 10.11C104.404 10.21 104.114 10.33 103.894 10.47V20.97C103.694 21.03 103.374 21.09 102.934 21.15C102.514 21.21 102.074 21.24 101.614 21.24C101.174 21.24 100.774 21.21 100.414 21.15C100.074 21.09 99.7838 20.97 99.5438 20.79C99.3038 20.61 99.1138 20.37 98.9738 20.07C98.8538 19.75 98.7938 19.34 98.7938 18.84V1.44001C99.0138 1.4 99.3338 1.35 99.7538 1.29001C100.194 1.21001 100.634 1.17001 101.074 1.17001C101.514 1.17001 101.904 1.2 102.244 1.26C102.604 1.32 102.904 1.44 103.144 1.62C103.384 1.8 103.564 2.05 103.684 2.37C103.824 2.67 103.894 3.07 103.894 3.57V6.51C104.154 6.41 104.544 6.3 105.064 6.18001C105.604 6.04 106.194 5.97 106.834 5.97C108.814 5.97 110.354 6.47 111.454 7.47C112.574 8.45001 113.134 9.92 113.134 11.88V20.97Z" fill="url(#paint7_linear)"/>
<path d="M131.373 13.71C131.373 14.95 131.183 16.06 130.803 17.04C130.423 18 129.883 18.81 129.183 19.47C128.503 20.13 127.683 20.63 126.723 20.97C125.763 21.31 124.693 21.48 123.513 21.48C122.333 21.48 121.263 21.3 120.303 20.94C119.343 20.58 118.513 20.07 117.813 19.41C117.133 18.73 116.603 17.91 116.223 16.95C115.843 15.99 115.653 14.91 115.653 13.71C115.653 12.53 115.843 11.46 116.223 10.5C116.603 9.54 117.133 8.73001 117.813 8.07C118.513 7.39 119.343 6.87 120.303 6.51C121.263 6.15 122.333 5.97 123.513 5.97C124.693 5.97 125.763 6.16 126.723 6.54C127.683 6.9 128.503 7.42 129.183 8.10001C129.883 8.76 130.423 9.57001 130.803 10.53C131.183 11.49 131.373 12.55 131.373 13.71ZM120.873 13.71C120.873 14.93 121.103 15.87 121.563 16.53C122.043 17.17 122.703 17.49 123.543 17.49C124.383 17.49 125.023 17.16 125.463 16.5C125.923 15.84 126.153 14.91 126.153 13.71C126.153 12.51 125.923 11.59 125.463 10.95C125.003 10.29 124.353 9.96 123.513 9.96C122.673 9.96 122.023 10.29 121.563 10.95C121.103 11.59 120.873 12.51 120.873 13.71Z" fill="url(#paint8_linear)"/>
<path d="M140.551 5.97C141.751 5.97 142.861 6.13 143.881 6.45001C144.921 6.75 145.811 7.22001 146.551 7.86C147.291 8.5 147.871 9.31001 148.291 10.29C148.711 11.25 148.921 12.4 148.921 13.74C148.921 15.02 148.741 16.14 148.381 17.1C148.021 18.06 147.511 18.87 146.851 19.53C146.191 20.17 145.391 20.65 144.451 20.97C143.531 21.29 142.501 21.45 141.361 21.45C140.501 21.45 139.701 21.32 138.961 21.06V26.04C138.761 26.1 138.441 26.16 138.001 26.22C137.561 26.3 137.111 26.34 136.651 26.34C136.211 26.34 135.811 26.31 135.451 26.25C135.111 26.19 134.821 26.07 134.581 25.89C134.341 25.71 134.161 25.46 134.041 25.14C133.921 24.84 133.861 24.44 133.861 23.94V9.54C133.861 9 133.971 8.56001 134.191 8.22C134.431 7.88 134.751 7.57 135.151 7.29C135.771 6.89 136.541 6.57 137.461 6.33C138.381 6.09 139.411 5.97 140.551 5.97ZM140.611 17.43C142.671 17.43 143.701 16.2 143.701 13.74C143.701 12.46 143.441 11.51 142.921 10.89C142.421 10.27 141.691 9.96 140.731 9.96C140.351 9.96 140.011 10.01 139.711 10.11C139.411 10.19 139.151 10.29 138.931 10.41V17.01C139.171 17.13 139.431 17.23 139.711 17.31C139.991 17.39 140.291 17.43 140.611 17.43Z" fill="url(#paint9_linear)"/>
<defs>
<linearGradient id="paint0_linear" x1="0.619994" y1="13.4849" x2="148.921" y2="13.4849" gradientUnits="userSpaceOnUse">
<stop offset="0.265625" stop-color="#FF2012"/>
<stop offset="1" stop-color="#FFB800"/>
</linearGradient>
<linearGradient id="paint1_linear" x1="0.619994" y1="13.4849" x2="148.921" y2="13.4849" gradientUnits="userSpaceOnUse">
<stop offset="0.265625" stop-color="#FF2012"/>
<stop offset="1" stop-color="#FFB800"/>
</linearGradient>
<linearGradient id="paint2_linear" x1="0.619994" y1="13.4849" x2="148.921" y2="13.4849" gradientUnits="userSpaceOnUse">
<stop offset="0.265625" stop-color="#FF2012"/>
<stop offset="1" stop-color="#FFB800"/>
</linearGradient>
<linearGradient id="paint3_linear" x1="0.619994" y1="13.4849" x2="148.921" y2="13.4849" gradientUnits="userSpaceOnUse">
<stop offset="0.265625" stop-color="#FF2012"/>
<stop offset="1" stop-color="#FFB800"/>
</linearGradient>
<linearGradient id="paint4_linear" x1="0.619994" y1="13.4849" x2="148.921" y2="13.4849" gradientUnits="userSpaceOnUse">
<stop offset="0.265625" stop-color="#FF2012"/>
<stop offset="1" stop-color="#FFB800"/>
</linearGradient>
<linearGradient id="paint5_linear" x1="0.619994" y1="13.4849" x2="148.921" y2="13.4849" gradientUnits="userSpaceOnUse">
<stop offset="0.265625" stop-color="#FF2012"/>
<stop offset="1" stop-color="#FFB800"/>
</linearGradient>
<linearGradient id="paint6_linear" x1="0.619994" y1="13.4849" x2="148.921" y2="13.4849" gradientUnits="userSpaceOnUse">
<stop offset="0.265625" stop-color="#FF2012"/>
<stop offset="1" stop-color="#FFB800"/>
</linearGradient>
<linearGradient id="paint7_linear" x1="0.619994" y1="13.4849" x2="148.921" y2="13.4849" gradientUnits="userSpaceOnUse">
<stop offset="0.265625" stop-color="#FF2012"/>
<stop offset="1" stop-color="#FFB800"/>
</linearGradient>
<linearGradient id="paint8_linear" x1="0.619994" y1="13.4849" x2="148.921" y2="13.4849" gradientUnits="userSpaceOnUse">
<stop offset="0.265625" stop-color="#FF2012"/>
<stop offset="1" stop-color="#FFB800"/>
</linearGradient>
<linearGradient id="paint9_linear" x1="0.619994" y1="13.4849" x2="148.921" y2="13.4849" gradientUnits="userSpaceOnUse">
<stop offset="0.265625" stop-color="#FF2012"/>
<stop offset="1" stop-color="#FFB800"/>
</linearGradient>
</defs>
</svg>
