<svg id="Слой_1" data-name="Слой 1" xmlns="http://www.w3.org/2000/svg" viewBox="0 0 30 30"><defs><style>.cls-1{fill:#43484d;}</style></defs><title>auth-icon</title><path class="cls-1" d="M26.06,23.58a1.39,1.39,0,0,1-1.39-1.39c0-2.84-4.42-5.24-9.66-5.24s-9.66,2.4-9.66,5.24a1.39,1.39,0,1,1-2.79,0c0-4.5,5.47-8,12.45-8s12.45,3.53,12.45,8A1.39,1.39,0,0,1,26.06,23.58Z"/><path class="cls-1" d="M15,16.95a7.47,7.47,0,1,1,7.48-7.47A7.48,7.48,0,0,1,15,16.95ZM15,4.79a4.69,4.69,0,1,0,4.69,4.69A4.69,4.69,0,0,0,15,4.79Z"/><path class="cls-1" d="M25.49,28h-21a2.14,2.14,0,0,1-2-2.19V22.18a1.39,1.39,0,1,1,2.79,0v3H24.66v-3a1.39,1.39,0,1,1,2.79,0v3.63A2.12,2.12,0,0,1,25.49,28Z"/></svg>