<svg id="Слой_1" data-name="Слой 1" xmlns="http://www.w3.org/2000/svg" viewBox="0 0 30 30"><defs><style>.cls-1{fill:#43484d;}</style></defs><title>cart-icon</title><path class="cls-1" d="M17.66,28.75a3.57,3.57,0,1,1,3.51-3.57A3.54,3.54,0,0,1,17.66,28.75Zm0-4.32a.76.76,0,1,0,.7.76A.73.73,0,0,0,17.66,24.42Z"/><path class="cls-1" d="M8.71,28.75a3.57,3.57,0,1,1,3.51-3.57A3.54,3.54,0,0,1,8.71,28.75Zm0-4.32a.76.76,0,1,0,.7.76A.73.73,0,0,0,8.71,24.42Z"/><path class="cls-1" d="M19.81,18.34H6a2.09,2.09,0,0,1-1.86-1.59L1.09,6.82A1.6,1.6,0,0,1,1.3,5.34a1.78,1.78,0,0,1,1.51-.66H23a1.81,1.81,0,0,1,1.49.7,1.7,1.7,0,0,1,.23,1.53l-3.08,9.75A2.12,2.12,0,0,1,19.81,18.34ZM6.73,15.53H19.08l2.56-8H4.23ZM3.77,6h0Z"/><path class="cls-1" d="M23.44,7.41a1.4,1.4,0,0,1-1.3-1.92l1.05-2.64a1.4,1.4,0,1,1,2.61,1L24.74,6.52A1.4,1.4,0,0,1,23.44,7.41Z"/><path class="cls-1" d="M21.86,23.07a1.4,1.4,0,0,1-1.32-.92L19,18a1.4,1.4,0,0,1,.74-2.59,2,2,0,0,1,1.84,1.5l1.58,4.28a1.4,1.4,0,0,1-.83,1.8A1.38,1.38,0,0,1,21.86,23.07Zm-2.11-4.86h0Zm-.81-.42v0Z"/><path class="cls-1" d="M27.6,4.06H24.74a1.4,1.4,0,1,1,0-2.81H27.6a1.4,1.4,0,1,1,0,2.81Z"/><path class="cls-1" d="M21.89,23.47H5.33a1.4,1.4,0,0,1,0-2.81H21.89a1.4,1.4,0,0,1,0,2.81Z"/></svg>