<svg id="Слой_4" data-name="Слой 4" xmlns="http://www.w3.org/2000/svg" viewBox="0 0 20 20"><defs><style>.cls-1{fill:#bbb;}</style></defs><title>delivery-icon</title><path class="cls-1" d="M4.56,9.09h-4a.45.45,0,0,1,0-.89h4a.45.45,0,1,1,0,.89Zm15.11,5.05a1.31,1.31,0,0,1-1.1.56h-.74a2.25,2.25,0,0,1-4.47,0H8.86a2.25,2.25,0,0,1-4.47,0H3.18a.87.87,0,0,1-.87-.87V9.94a.45.45,0,1,1,.89,0v3.87H4.5a2.24,2.24,0,0,1,2.15-1.57,2.27,2.27,0,0,1,2.15,1.57h3.42V4.15h-9V5.23a.45.45,0,1,1-.89,0V4.15a.87.87,0,0,1,.87-.87h9a.87.87,0,0,1,.87.87V5.29h4.81A1.34,1.34,0,0,1,19.23,6.5l.6,4.61v1.72l0,.11A1.45,1.45,0,0,1,19.68,14.15ZM8,14.48a1.34,1.34,0,1,0-1.34,1.34A1.35,1.35,0,0,0,8,14.48Zm7.13-5.16a.45.45,0,0,0,.45.45h3.2l-.4-3.17a.46.46,0,0,0-.47-.4H15.12ZM17,14.48a1.34,1.34,0,1,0-1.34,1.34A1.35,1.35,0,0,0,17,14.48Zm2-1.25L18.94,13v-.76H18.4a.45.45,0,1,1,0-.89h.54v-.2l-.07-.47H15.56a1.35,1.35,0,0,1-1.34-1.34V6.17H13.1v7.65h.38a2.24,2.24,0,0,1,2.15-1.57,2.27,2.27,0,0,1,2.15,1.57h.83a.47.47,0,0,0,.36-.18A.51.51,0,0,0,19,13.23ZM1.41,7.28H5.9a.45.45,0,1,0,0-.89H1.41a.45.45,0,0,0,0,.89ZM15.2,14.48a.45.45,0,1,1,.45.45A.45.45,0,0,1,15.2,14.48Zm-8.11,0A.45.45,0,1,1,6.64,14,.45.45,0,0,1,7.09,14.48ZM6.37,8.64a.45.45,0,1,1-.45-.45A.45.45,0,0,1,6.37,8.64Z"/></svg>