<svg width="25" height="17" viewBox="0 0 25 17" fill="none" xmlns="http://www.w3.org/2000/svg">
<path fill-rule="evenodd" clip-rule="evenodd" d="M2.0641 3.09999C2.40285 3.09999 2.59999 2.82742 2.59999 2.58803C2.59999 2.34863 2.40285 2.07606 2.0641 2.07606C1.72534 2.07606 1.5282 2.34863 1.5282 2.58803C1.5282 2.82742 1.72534 3.09999 2.0641 3.09999ZM0.399994 2.58803C0.399994 1.69944 1.10257 0.899994 2.0641 0.899994C3.02562 0.899994 3.7282 1.69944 3.7282 2.58803C3.7282 3.47661 3.02562 4.27606 2.0641 4.27606C1.10257 4.27606 0.399994 3.47661 0.399994 2.58803ZM6.60513 2.88204C6.60513 2.27453 7.09762 1.78204 7.70513 1.78204H23.5C24.1075 1.78204 24.6 2.27453 24.6 2.88204C24.6 3.48955 24.1075 3.98204 23.5 3.98204H7.70513C7.09762 3.98204 6.60513 3.48955 6.60513 2.88204ZM2.0641 8.98033C2.40285 8.98033 2.59999 8.70776 2.59999 8.46836C2.59999 8.22897 2.40285 7.9564 2.0641 7.9564C1.72534 7.9564 1.5282 8.22897 1.5282 8.46836C1.5282 8.70776 1.72534 8.98033 2.0641 8.98033ZM0.399994 8.46836C0.399994 7.57978 1.10257 6.78033 2.0641 6.78033C3.02562 6.78033 3.7282 7.57978 3.7282 8.46836C3.7282 9.35695 3.02562 10.1564 2.0641 10.1564C1.10257 10.1564 0.399994 9.35695 0.399994 8.46836ZM6.60513 8.76238C6.60513 8.15486 7.09762 7.66238 7.70513 7.66238H23.5C24.1075 7.66238 24.6 8.15486 24.6 8.76238C24.6 9.36989 24.1075 9.86238 23.5 9.86238H7.70513C7.09762 9.86238 6.60513 9.36989 6.60513 8.76238ZM2.0641 14.8607C2.40285 14.8607 2.59999 14.5881 2.59999 14.3487C2.59999 14.1093 2.40285 13.8367 2.0641 13.8367C1.72534 13.8367 1.5282 14.1093 1.5282 14.3487C1.5282 14.5881 1.72534 14.8607 2.0641 14.8607ZM0.399994 14.3487C0.399994 13.4601 1.10257 12.6607 2.0641 12.6607C3.02562 12.6607 3.7282 13.4601 3.7282 14.3487C3.7282 15.2373 3.02562 16.0367 2.0641 16.0367C1.10257 16.0367 0.399994 15.2373 0.399994 14.3487ZM6.60513 14.6427C6.60513 14.0352 7.09762 13.5427 7.70513 13.5427H23.5C24.1075 13.5427 24.6 14.0352 24.6 14.6427C24.6 15.2502 24.1075 15.7427 23.5 15.7427H7.70513C7.09762 15.7427 6.60513 15.2502 6.60513 14.6427Z" fill="white"/>
</svg>
