<svg id="Слой_8" data-name="Слой 8" xmlns="http://www.w3.org/2000/svg" viewBox="0 0 20 20"><defs><style>.cls-1{fill:#bbb;}</style></defs><title>payment-card-icon</title><path class="cls-1" d="M15.23,12.36v3.32a.92.92,0,0,1-.92.91H.92A.91.91,0,0,1,0,15.68V7.16a.91.91,0,0,1,.92-.91H6.18a.45.45,0,0,1,.45.44.44.44,0,0,1-.45.43H.89v2H6.18a.44.44,0,0,1,.45.44.45.45,0,0,1-.45.44H.89v5.74H14.33V12.36a.45.45,0,0,1,.9,0Z"/><path class="cls-1" d="M4.71,12.36a.45.45,0,0,1-.45.45H2.35a.44.44,0,0,1,0-.88H4.27A.44.44,0,0,1,4.71,12.36Z"/><path class="cls-1" d="M13.32,6.64a.43.43,0,0,1-.1.32L11.3,9.33A.42.42,0,0,1,11,9.5h0a.5.5,0,0,1-.36-.21l-1-1.41a.44.44,0,0,1,.13-.61A.4.4,0,0,1,10,7.2h.1a.41.41,0,0,1,.28.19l.62.91,1.54-1.9a.44.44,0,0,1,.62-.06A.42.42,0,0,1,13.32,6.64Z"/><path class="cls-1" d="M14.94,4.91,11.59,3.49l-.15,0a.75.75,0,0,0-.16,0L7.93,4.91a.41.41,0,0,0-.24.36V7.16c0,2.57,1,4.08,3.55,5.54a.39.39,0,0,0,.39,0c2.58-1.46,3.55-3,3.55-5.54V5.27A.41.41,0,0,0,14.94,4.91Zm-.55,2.25c0,2.22-.76,3.45-2.91,4.73l0,0,0,0C9.25,10.61,8.48,9.38,8.48,7.16V5.53l3-1.26,0,0,2.92,1.24Z"/></svg>