<svg width="8" height="8" viewBox="0 0 8 8" fill="none" xmlns="http://www.w3.org/2000/svg">
<path d="M2.73291 3.88479V2.94513C2.73291 2.68586 2.62991 2.4372 2.44658 2.25387C2.26324 2.07054 2.01459 1.96754 1.75532 1.96754C1.49605 1.96754 1.24739 2.07054 1.06406 2.25387C0.880729 2.4372 0.777734 2.68586 0.777734 2.94513V6.24471C0.777734 6.50399 0.880729 6.75264 1.06406 6.93597C1.2474 7.11931 1.49605 7.2223 1.75532 7.2223H5.20635C5.46562 7.2223 5.71428 7.11931 5.89761 6.93597C6.08094 6.75264 6.18394 6.50399 6.18394 6.24471C6.18394 5.98544 6.08094 5.73679 5.89761 5.55346C5.71428 5.37012 5.46562 5.26713 5.20635 5.26713H4.11525L7.3259 2.05647C7.41667 1.96571 7.48867 1.85795 7.53779 1.73936L7.39921 1.68196L7.53779 1.73936C7.58691 1.62077 7.6122 1.49367 7.6122 1.3653C7.6122 1.23694 7.58691 1.10984 7.53779 0.991245L7.40208 1.04746L7.53779 0.991244C7.48867 0.872654 7.41667 0.764899 7.3259 0.674133C7.23514 0.583368 7.12738 0.511369 7.00879 0.462247C6.8902 0.413125 6.7631 0.387842 6.63473 0.387842C6.50637 0.387842 6.37927 0.413125 6.26067 0.462247C6.14208 0.511369 6.03433 0.583368 5.94356 0.674133L6.04963 0.7802L5.94356 0.674134L2.73291 3.88479Z" fill="#424242" stroke="#424242" stroke-width="0.3"/>
</svg>
