<svg width="17" height="19" viewBox="0 0 17 19" fill="none" xmlns="http://www.w3.org/2000/svg">
<path fill-rule="evenodd" clip-rule="evenodd" d="M7.50098 3.5C4.99838 3.5 3 5.50024 3 7.93098C3 10.3617 4.99838 12.362 7.50098 12.362C10.0037 12.362 12.0023 10.3616 12.0023 7.93098C12.0023 5.50036 10.0037 3.5 7.50098 3.5ZM0 7.93098C0 3.81031 3.3748 0.5 7.50098 0.5C11.627 0.5 15.0023 3.81019 15.0023 7.93098C15.0023 9.6424 14.4201 11.214 13.4438 12.4667L16.5762 15.6922C17.1533 16.2864 17.1394 17.2361 16.5452 17.8132C15.9509 18.3904 15.0012 18.3765 14.4241 17.7822L11.1585 14.4197C10.0749 15.0202 8.82669 15.362 7.50098 15.362C3.3748 15.362 0 12.0517 0 7.93098Z" fill="white"/>
</svg>
