<svg id="Слой_6" data-name="Слой 6" xmlns="http://www.w3.org/2000/svg" viewBox="0 0 20 20"><defs><style>.cls-1{fill:#bbb;}</style></defs><title>sneakers-icon</title><path class="cls-1" d="M10.72,15.37a.39.39,0,0,0-.26-.1h0a.37.37,0,0,0-.38.38.38.38,0,0,0,.39.37.41.41,0,0,0,.28-.11.38.38,0,0,0,0-.54Zm0,0a.39.39,0,0,0-.26-.1h0a.37.37,0,0,0-.38.38.38.38,0,0,0,.39.37.41.41,0,0,0,.28-.11.38.38,0,0,0,0-.54Zm0,0a.39.39,0,0,0-.26-.1h0a.37.37,0,0,0-.38.38.38.38,0,0,0,.39.37.41.41,0,0,0,.28-.11.38.38,0,0,0,0-.54Zm0,0a.39.39,0,0,0-.26-.1h0a.37.37,0,0,0-.38.38.38.38,0,0,0,.39.37.41.41,0,0,0,.28-.11.38.38,0,0,0,0-.54Zm0,0a.39.39,0,0,0-.26-.1h0a.37.37,0,0,0-.38.38.38.38,0,0,0,.39.37.41.41,0,0,0,.28-.11.38.38,0,0,0,0-.54Zm0,0a.39.39,0,0,0-.26-.1h0a.37.37,0,0,0-.38.38.38.38,0,0,0,.39.37.41.41,0,0,0,.28-.11.38.38,0,0,0,0-.54Zm0,0a.39.39,0,0,0-.26-.1h0a.37.37,0,0,0-.38.38.38.38,0,0,0,.39.37.41.41,0,0,0,.28-.11.38.38,0,0,0,0-.54Zm0,0a.39.39,0,0,0-.26-.1h0a.37.37,0,0,0-.38.38.38.38,0,0,0,.39.37.41.41,0,0,0,.28-.11.38.38,0,0,0,0-.54Zm0,0a.39.39,0,0,0-.26-.1h0a.37.37,0,0,0-.38.38.38.38,0,0,0,.39.37.41.41,0,0,0,.28-.11.38.38,0,0,0,0-.54Zm0,0a.39.39,0,0,0-.26-.1h0a.37.37,0,0,0-.38.38.38.38,0,0,0,.39.37.41.41,0,0,0,.28-.11.38.38,0,0,0,0-.54Zm0,0a.39.39,0,0,0-.26-.1h0a.37.37,0,0,0-.38.38.38.38,0,0,0,.39.37.41.41,0,0,0,.28-.11.38.38,0,0,0,0-.54Zm0,0a.39.39,0,0,0-.26-.1h0a.37.37,0,0,0-.38.38.38.38,0,0,0,.39.37.41.41,0,0,0,.28-.11.38.38,0,0,0,0-.54Zm0,0a.39.39,0,0,0-.26-.1h0a.37.37,0,0,0-.38.38.38.38,0,0,0,.39.37.41.41,0,0,0,.28-.11.38.38,0,0,0,0-.54ZM15.43,13a13.23,13.23,0,0,1-4-.6.78.78,0,0,0-.39-.77l-.66-.37a.83.83,0,0,0-.62-.07.78.78,0,0,0-.48.34l-.1,0a.77.77,0,0,0-.31-1L8.25,10A.86.86,0,0,0,7.64,10a.77.77,0,0,0-.44.3L6.74,10a.4.4,0,0,0-.48,0,3.81,3.81,0,0,1-4.3.54l-.29-.16a.43.43,0,0,0-.35,0,.37.37,0,0,0-.22.27l-1,4.43A2.23,2.23,0,0,0,.19,16.3a2.3,2.3,0,0,0,2.17,1.5H13.12a5.21,5.21,0,0,0,3.79-1.62,1.87,1.87,0,0,0,.52-1.3A2,2,0,0,0,15.43,13ZM10,11.89h0l.66.37s0,0,0,0v0L9.59,14.14s0,0,0,0l-.66-.37a0,0,0,0,1,0,0,0,0,0,0,1,0,0ZM7.83,10.7s0,0,0,0h0l.66.37s0,0,0,0v0L7.42,13h0l-.66-.37s0,0,0,0h0ZM2.36,17A1.51,1.51,0,0,1,.93,16a1.34,1.34,0,0,1-.05-.78L.94,15h.38A3.84,3.84,0,0,1,4.75,17Zm14-1.37A4.41,4.41,0,0,1,13.12,17H5.6a4.56,4.56,0,0,0-4.27-2.82H1.12l.64-2.9a4.8,4.8,0,0,0,.9.32l2.61,3.08A3.67,3.67,0,0,0,8.1,16H9.27a.38.38,0,1,0,0-.75H8.1a2.92,2.92,0,0,1-2.23-1L3.78,11.76a4.58,4.58,0,0,0,2.8-1l.23.13L6,12.19a.76.76,0,0,0,.29,1.06l.66.37a.83.83,0,0,0,.61.08.79.79,0,0,0,.5-.36l.74-1.24.09.05-.72,1.22a.7.7,0,0,0-.08.59.79.79,0,0,0,.37.48l.66.37a.83.83,0,0,0,.4.1.82.82,0,0,0,.7-.39L11.15,13a13.61,13.61,0,0,0,2,.48,2.83,2.83,0,0,0-.72.71,2.47,2.47,0,0,1-1,.79.38.38,0,0,0-.2.22.33.33,0,0,0,0,.28.38.38,0,0,0,.35.22.35.35,0,0,0,.18,0,3.18,3.18,0,0,0,1.27-1,2.39,2.39,0,0,1,1.78-1h.58a1.19,1.19,0,0,1,1.21,1.17A1.15,1.15,0,0,1,16.32,15.67Zm-5.87-.4h0a.37.37,0,0,0-.38.38.38.38,0,0,0,.39.37.41.41,0,0,0,.28-.11.38.38,0,0,0,0-.54A.39.39,0,0,0,10.46,15.27Zm.26.1a.39.39,0,0,0-.26-.1h0a.37.37,0,0,0-.38.38.38.38,0,0,0,.39.37.41.41,0,0,0,.28-.11.38.38,0,0,0,0-.54Zm0,0a.39.39,0,0,0-.26-.1h0a.37.37,0,0,0-.38.38.38.38,0,0,0,.39.37.41.41,0,0,0,.28-.11.38.38,0,0,0,0-.54Zm0,0a.39.39,0,0,0-.26-.1h0a.37.37,0,0,0-.38.38.38.38,0,0,0,.39.37.41.41,0,0,0,.28-.11.38.38,0,0,0,0-.54Zm0,0a.39.39,0,0,0-.26-.1h0a.37.37,0,0,0-.38.38.38.38,0,0,0,.39.37.41.41,0,0,0,.28-.11.38.38,0,0,0,0-.54Zm0,0a.39.39,0,0,0-.26-.1h0a.37.37,0,0,0-.38.38.38.38,0,0,0,.39.37.41.41,0,0,0,.28-.11.38.38,0,0,0,0-.54Zm0,0a.39.39,0,0,0-.26-.1h0a.37.37,0,0,0-.38.38.38.38,0,0,0,.39.37.41.41,0,0,0,.28-.11.38.38,0,0,0,0-.54Zm0,0a.39.39,0,0,0-.26-.1h0a.37.37,0,0,0-.38.38.38.38,0,0,0,.39.37.41.41,0,0,0,.28-.11.38.38,0,0,0,0-.54Zm0,0a.39.39,0,0,0-.26-.1h0a.37.37,0,0,0-.38.38.38.38,0,0,0,.39.37.41.41,0,0,0,.28-.11.38.38,0,0,0,0-.54Zm0,0a.39.39,0,0,0-.26-.1h0a.37.37,0,0,0-.38.38.38.38,0,0,0,.39.37.41.41,0,0,0,.28-.11.38.38,0,0,0,0-.54Zm0,0a.39.39,0,0,0-.26-.1h0a.37.37,0,0,0-.38.38.38.38,0,0,0,.39.37.41.41,0,0,0,.28-.11.38.38,0,0,0,0-.54Zm0,0a.39.39,0,0,0-.26-.1h0a.37.37,0,0,0-.38.38.38.38,0,0,0,.39.37.41.41,0,0,0,.28-.11.38.38,0,0,0,0-.54Zm0,0a.39.39,0,0,0-.26-.1h0a.37.37,0,0,0-.38.38.38.38,0,0,0,.39.37.41.41,0,0,0,.28-.11.38.38,0,0,0,0-.54Zm0,0a.39.39,0,0,0-.26-.1h0a.37.37,0,0,0-.38.38.38.38,0,0,0,.39.37.41.41,0,0,0,.28-.11.38.38,0,0,0,0-.54Zm0,0a.39.39,0,0,0-.26-.1h0a.37.37,0,0,0-.38.38.38.38,0,0,0,.39.37.41.41,0,0,0,.28-.11.38.38,0,0,0,0-.54Z"/><path class="cls-1" d="M10.72,15.37a.39.39,0,0,0-.26-.1h0a.37.37,0,0,0-.38.38.38.38,0,0,0,.39.37.41.41,0,0,0,.28-.11.38.38,0,0,0,0-.54Z"/><path class="cls-1" d="M17.31,6.12l-1-4.43a.37.37,0,0,0-.22-.26.4.4,0,0,0-.35,0l-.29.15A3.79,3.79,0,0,1,11.15,1a.42.42,0,0,0-.48,0l-.46.26A.75.75,0,0,0,9.78,1,.81.81,0,0,0,9.17,1l-.66.37a.79.79,0,0,0-.37.48.76.76,0,0,0,.06.56l-.1,0a.83.83,0,0,0-.48-.35A.84.84,0,0,0,7,2.24l-.66.37a.76.76,0,0,0-.39.77A13.55,13.55,0,0,1,2,4,2,2,0,0,0,0,5.9,1.83,1.83,0,0,0,.52,7.19,5.21,5.21,0,0,0,4.3,8.81H5a.38.38,0,1,0,0-.75H4.3A4.38,4.38,0,0,1,1.1,6.68,1.11,1.11,0,0,1,.78,5.9,1.2,1.2,0,0,1,2,4.72h.58a2.4,2.4,0,0,1,1.78,1A3.35,3.35,0,0,0,7,7H9.32a3.68,3.68,0,0,0,2.83-1.31l2.61-3.08a4.77,4.77,0,0,0,.9-.31l.64,2.9H16.1a4.55,4.55,0,0,0-4.27,2.82H8.49a.38.38,0,1,0,0,.75h6.57a2.29,2.29,0,0,0,2.17-1.5A2.21,2.21,0,0,0,17.31,6.12Zm-8.42-4a0,0,0,0,1,0,0l.66-.37h0l1.12,1.86v0a0,0,0,0,1,0,0L10,4h0L8.89,2.11A0,0,0,0,1,8.89,2.09ZM6.71,3.28s0,0,0,0l.66-.37h0L8.53,4.76s0,0,0,0v0l-.66.37a0,0,0,0,1,0,0L6.71,3.29Zm4.84,2a2.91,2.91,0,0,1-2.23,1H7a2.51,2.51,0,0,1-2-1,3.2,3.2,0,0,0-.72-.71,15,15,0,0,0,2-.47l.88,1.47a.82.82,0,0,0,.7.39.84.84,0,0,0,.4-.11l.66-.37a.76.76,0,0,0,.29-1.06L8.48,3.16l.09,0,.74,1.24a.85.85,0,0,0,.49.37.89.89,0,0,0,.62-.08l.66-.37a.77.77,0,0,0,.37-.48.74.74,0,0,0-.08-.59l-.77-1.27.23-.14a4.59,4.59,0,0,0,2.8,1Zm4.93,1.81a1.51,1.51,0,0,1-1.43,1H12.67A3.84,3.84,0,0,1,16.1,6h.38l.06.29a1.48,1.48,0,0,1,0,.3A1.32,1.32,0,0,1,16.49,7.07Z"/><path class="cls-1" d="M7.21,8.17a.41.41,0,0,0-.55,0,.37.37,0,0,0-.11.26.38.38,0,0,0,.11.27.41.41,0,0,0,.28.11.36.36,0,0,0,.27-.11.34.34,0,0,0,0-.53Z"/></svg>