<svg width="149" height="27" viewBox="0 0 149 27" fill="none" xmlns="http://www.w3.org/2000/svg">
<path d="M0.620117 6.42C0.620117 5.4 0.790117 4.53001 1.13012 3.81001C1.49012 3.07001 1.97012 2.47001 2.57012 2.01C3.17012 1.53001 3.87012 1.18 4.67012 0.960004C5.49012 0.740005 6.36012 0.630005 7.28012 0.630005C8.76012 0.630005 9.85012 0.830005 10.5501 1.23C11.2501 1.61 11.6001 2.27 11.6001 3.21C11.6001 3.61 11.5101 3.97 11.3301 4.29C11.1701 4.61 10.9901 4.85001 10.7901 5.01C10.4101 4.91 10.0101 4.83 9.59012 4.77001C9.19012 4.69001 8.72012 4.65 8.18012 4.65C7.32012 4.65 6.65012 4.8 6.17012 5.1C5.69012 5.38 5.45012 5.88 5.45012 6.60001V7.56001H10.3701C10.4901 7.78001 10.6001 8.06001 10.7001 8.4C10.8201 8.72001 10.8801 9.08 10.8801 9.48001C10.8801 10.18 10.7201 10.69 10.4001 11.01C10.1001 11.31 9.69012 11.46 9.17012 11.46H5.72012V20.97C5.52012 21.03 5.20012 21.09 4.76012 21.15C4.34012 21.21 3.90012 21.24 3.44012 21.24C3.00012 21.24 2.60012 21.21 2.24012 21.15C1.90012 21.09 1.61012 20.97 1.37012 20.79C1.13012 20.61 0.940117 20.37 0.800117 20.07C0.680117 19.75 0.620117 19.34 0.620117 18.84V6.42Z" fill="url(#paint0_linear)"/>
<path d="M19.1048 17.76C19.4448 17.76 19.8148 17.73 20.2148 17.67C20.6348 17.59 20.9448 17.49 21.1448 17.37V14.97L18.9848 15.15C18.4248 15.19 17.9648 15.31 17.6048 15.51C17.2448 15.71 17.0648 16.01 17.0648 16.41C17.0648 16.81 17.2148 17.14 17.5148 17.4C17.8348 17.64 18.3648 17.76 19.1048 17.76ZM18.8648 5.97C19.9448 5.97 20.9248 6.08 21.8048 6.3C22.7048 6.52 23.4648 6.86 24.0848 7.32C24.7248 7.76 25.2148 8.33 25.5548 9.03C25.8948 9.71 26.0648 10.52 26.0648 11.46V18.18C26.0648 18.7 25.9148 19.13 25.6148 19.47C25.3348 19.79 24.9948 20.07 24.5948 20.31C23.2948 21.09 21.4648 21.48 19.1048 21.48C18.0448 21.48 17.0848 21.38 16.2248 21.18C15.3848 20.98 14.6548 20.68 14.0348 20.28C13.4348 19.88 12.9648 19.37 12.6248 18.75C12.3048 18.13 12.1448 17.41 12.1448 16.59C12.1448 15.21 12.5548 14.15 13.3748 13.41C14.1948 12.67 15.4648 12.21 17.1848 12.03L21.1148 11.61V11.4C21.1148 10.82 20.8548 10.41 20.3348 10.17C19.8348 9.91001 19.1048 9.78001 18.1448 9.78001C17.3848 9.78001 16.6448 9.86 15.9248 10.02C15.2048 10.18 14.5548 10.38 13.9748 10.62C13.7148 10.44 13.4948 10.17 13.3148 9.81001C13.1348 9.43001 13.0448 9.04 13.0448 8.64C13.0448 8.12 13.1648 7.71 13.4048 7.41001C13.6648 7.09 14.0548 6.82001 14.5748 6.60001C15.1548 6.38 15.8348 6.22 16.6148 6.12C17.4148 6.02 18.1648 5.97 18.8648 5.97Z" fill="url(#paint1_linear)"/>
<path d="M38.4232 11.76C38.4232 11.14 38.2432 10.69 37.8832 10.41C37.5432 10.11 37.0732 9.96 36.4732 9.96C36.0732 9.96 35.6732 10.01 35.2732 10.11C34.8932 10.21 34.5632 10.36 34.2832 10.56V20.97C34.0832 21.03 33.7632 21.09 33.3232 21.15C32.9032 21.21 32.4632 21.24 32.0032 21.24C31.5632 21.24 31.1632 21.21 30.8032 21.15C30.4632 21.09 30.1732 20.97 29.9332 20.79C29.6932 20.61 29.5032 20.37 29.3632 20.07C29.2432 19.75 29.1832 19.34 29.1832 18.84V9.84C29.1832 9.3 29.2932 8.86001 29.5132 8.52001C29.7532 8.18001 30.0732 7.87 30.4732 7.59C31.1532 7.11001 32.0032 6.72 33.0232 6.42C34.0632 6.12 35.2132 5.97 36.4732 5.97C38.7332 5.97 40.4732 6.47 41.6932 7.47C42.9132 8.45001 43.5232 9.82001 43.5232 11.58V20.97C43.3232 21.03 43.0032 21.09 42.5632 21.15C42.1432 21.21 41.7032 21.24 41.2432 21.24C40.8032 21.24 40.4032 21.21 40.0432 21.15C39.7032 21.09 39.4132 20.97 39.1732 20.79C38.9332 20.61 38.7432 20.37 38.6032 20.07C38.4832 19.75 38.4232 19.34 38.4232 18.84V11.76Z" fill="url(#paint2_linear)"/>
<path d="M54.8934 9.99001C54.3934 9.99001 53.9134 10.07 53.4534 10.23C53.0134 10.39 52.6234 10.63 52.2834 10.95C51.9634 11.25 51.7034 11.63 51.5034 12.09C51.3034 12.55 51.2034 13.09 51.2034 13.71C51.2034 14.95 51.5534 15.88 52.2534 16.5C52.9734 17.12 53.8434 17.43 54.8634 17.43C55.4634 17.43 55.9834 17.36 56.4234 17.22C56.8634 17.08 57.2534 16.93 57.5934 16.77C57.9934 17.05 58.2934 17.36 58.4934 17.7C58.6934 18.02 58.7934 18.41 58.7934 18.87C58.7934 19.69 58.4034 20.33 57.6234 20.79C56.8434 21.23 55.7634 21.45 54.3834 21.45C53.1234 21.45 51.9834 21.27 50.9634 20.91C49.9434 20.53 49.0634 20.01 48.3234 19.35C47.6034 18.67 47.0434 17.86 46.6434 16.92C46.2434 15.98 46.0434 14.94 46.0434 13.8C46.0434 12.48 46.2534 11.33 46.6734 10.35C47.1134 9.35001 47.7034 8.53 48.4434 7.89001C49.1834 7.25 50.0334 6.77001 50.9934 6.45001C51.9734 6.13 53.0034 5.97 54.0834 5.97C55.5234 5.97 56.6334 6.23 57.4134 6.75C58.1934 7.27 58.5834 7.94 58.5834 8.76C58.5834 9.14001 58.4934 9.5 58.3134 9.84C58.1334 10.16 57.9234 10.44 57.6834 10.68C57.3434 10.52 56.9334 10.37 56.4534 10.23C55.9734 10.07 55.4534 9.99001 54.8934 9.99001Z" fill="url(#paint3_linear)"/>
<path d="M63.6311 17.28C63.4111 16.78 63.1711 16.22 62.9111 15.6C62.6711 14.98 62.4111 14.27 62.1311 13.47C61.8711 12.67 61.5911 11.76 61.2911 10.74C61.0111 9.70001 60.7111 8.51 60.3911 7.17C60.6711 6.89001 61.0411 6.65 61.5011 6.45001C61.9811 6.23 62.5011 6.12 63.0611 6.12C63.7611 6.12 64.3411 6.27 64.8011 6.57C65.2611 6.85001 65.6011 7.39001 65.8211 8.19L68.1911 16.44H68.3111C68.5511 15.76 68.7811 15.02 69.0011 14.22C69.2411 13.42 69.4711 12.6 69.6911 11.76C69.9111 10.9 70.1111 10.05 70.2911 9.21C70.4911 8.35 70.6611 7.51 70.8011 6.69C71.5211 6.31001 72.3111 6.12 73.1711 6.12C73.8711 6.12 74.4511 6.27 74.9111 6.57C75.3711 6.87 75.6011 7.39001 75.6011 8.13C75.6011 8.67 75.5311 9.3 75.3911 10.02C75.2511 10.72 75.0611 11.47 74.8211 12.27C74.6011 13.07 74.3311 13.9 74.0111 14.76C73.7111 15.6 73.3911 16.43 73.0511 17.25C72.7111 18.07 72.3611 18.85 72.0011 19.59C71.6411 20.31 71.2911 20.96 70.9511 21.54C70.3911 22.52 69.8711 23.32 69.3911 23.94C68.9111 24.56 68.4511 25.04 68.0111 25.38C67.5711 25.74 67.1311 25.98 66.6911 26.1C66.2511 26.24 65.7911 26.31 65.3111 26.31C64.4711 26.31 63.7911 26.06 63.2711 25.56C62.7511 25.06 62.4411 24.41 62.3411 23.61C62.9811 23.11 63.6211 22.55 64.2611 21.93C64.9011 21.33 65.4811 20.71 66.0011 20.07C65.6611 19.97 65.2911 19.74 64.8911 19.38C64.5111 19 64.0911 18.3 63.6311 17.28Z" fill="url(#paint4_linear)"/>
<path d="M75.7734 18.57C75.7734 17.73 76.0334 17.03 76.5534 16.47C77.0734 15.91 77.7834 15.63 78.6834 15.63C79.5834 15.63 80.2934 15.91 80.8134 16.47C81.3334 17.03 81.5934 17.73 81.5934 18.57C81.5934 19.41 81.3334 20.11 80.8134 20.67C80.2934 21.23 79.5834 21.51 78.6834 21.51C77.7834 21.51 77.0734 21.23 76.5534 20.67C76.0334 20.11 75.7734 19.41 75.7734 18.57Z" fill="url(#paint5_linear)"/>
<path d="M96.2683 16.65C96.2683 18.17 95.6983 19.36 94.5583 20.22C93.4183 21.08 91.7383 21.51 89.5183 21.51C88.6783 21.51 87.8983 21.45 87.1783 21.33C86.4583 21.21 85.8383 21.03 85.3183 20.79C84.8183 20.53 84.4183 20.21 84.1183 19.83C83.8383 19.45 83.6983 19 83.6983 18.48C83.6983 18 83.7983 17.6 83.9983 17.28C84.1983 16.94 84.4383 16.66 84.7183 16.44C85.2983 16.76 85.9583 17.05 86.6983 17.31C87.4583 17.55 88.3283 17.67 89.3083 17.67C89.9283 17.67 90.3983 17.58 90.7183 17.4C91.0583 17.22 91.2283 16.98 91.2283 16.68C91.2283 16.4 91.1083 16.18 90.8683 16.02C90.6283 15.86 90.2283 15.73 89.6683 15.63L88.7683 15.45C87.0283 15.11 85.7283 14.58 84.8683 13.86C84.0283 13.12 83.6083 12.07 83.6083 10.71C83.6083 9.97001 83.7683 9.3 84.0883 8.7C84.4083 8.1 84.8583 7.6 85.4383 7.20001C86.0183 6.8 86.7083 6.49001 87.5083 6.27C88.3283 6.05 89.2283 5.94 90.2083 5.94C90.9483 5.94 91.6383 6 92.2783 6.12C92.9383 6.22 93.5083 6.38 93.9883 6.60001C94.4683 6.82001 94.8483 7.11 95.1283 7.47C95.4083 7.81001 95.5483 8.22001 95.5483 8.7C95.5483 9.16 95.4583 9.56001 95.2783 9.90001C95.1183 10.22 94.9083 10.49 94.6483 10.71C94.4883 10.61 94.2483 10.51 93.9283 10.41C93.6083 10.29 93.2583 10.19 92.8783 10.11C92.4983 10.01 92.1083 9.93 91.7083 9.87C91.3283 9.81001 90.9783 9.78001 90.6583 9.78001C89.9983 9.78001 89.4883 9.86 89.1283 10.02C88.7683 10.16 88.5883 10.39 88.5883 10.71C88.5883 10.93 88.6883 11.11 88.8883 11.25C89.0883 11.39 89.4683 11.52 90.0283 11.64L90.9583 11.85C92.8783 12.29 94.2383 12.9 95.0383 13.68C95.8583 14.44 96.2683 15.43 96.2683 16.65Z" fill="url(#paint6_linear)"/>
<path d="M113.134 20.97C112.934 21.03 112.614 21.09 112.174 21.15C111.754 21.21 111.314 21.24 110.854 21.24C110.414 21.24 110.014 21.21 109.654 21.15C109.314 21.09 109.024 20.97 108.784 20.79C108.544 20.61 108.354 20.37 108.214 20.07C108.094 19.75 108.034 19.34 108.034 18.84V12.18C108.034 11.36 107.824 10.79 107.404 10.47C107.004 10.13 106.504 9.96 105.904 9.96C105.504 9.96 105.124 10.01 104.764 10.11C104.404 10.21 104.114 10.33 103.894 10.47V20.97C103.694 21.03 103.374 21.09 102.934 21.15C102.514 21.21 102.074 21.24 101.614 21.24C101.174 21.24 100.774 21.21 100.414 21.15C100.074 21.09 99.7839 20.97 99.5439 20.79C99.3039 20.61 99.1139 20.37 98.9739 20.07C98.8539 19.75 98.7939 19.34 98.7939 18.84V1.44001C99.0139 1.4 99.3339 1.35 99.7539 1.29001C100.194 1.21001 100.634 1.17001 101.074 1.17001C101.514 1.17001 101.904 1.2 102.244 1.26C102.604 1.32 102.904 1.44 103.144 1.62C103.384 1.8 103.564 2.05 103.684 2.37C103.824 2.67 103.894 3.07 103.894 3.57V6.51C104.154 6.41 104.544 6.3 105.064 6.18001C105.604 6.04 106.194 5.97 106.834 5.97C108.814 5.97 110.354 6.47 111.454 7.47C112.574 8.45001 113.134 9.92 113.134 11.88V20.97Z" fill="url(#paint7_linear)"/>
<path d="M131.373 13.71C131.373 14.95 131.183 16.06 130.803 17.04C130.423 18 129.883 18.81 129.183 19.47C128.503 20.13 127.683 20.63 126.723 20.97C125.763 21.31 124.693 21.48 123.513 21.48C122.333 21.48 121.263 21.3 120.303 20.94C119.343 20.58 118.513 20.07 117.813 19.41C117.133 18.73 116.603 17.91 116.223 16.95C115.843 15.99 115.653 14.91 115.653 13.71C115.653 12.53 115.843 11.46 116.223 10.5C116.603 9.54 117.133 8.73001 117.813 8.07C118.513 7.39 119.343 6.87 120.303 6.51C121.263 6.15 122.333 5.97 123.513 5.97C124.693 5.97 125.763 6.16 126.723 6.54C127.683 6.9 128.503 7.42 129.183 8.10001C129.883 8.76 130.423 9.57001 130.803 10.53C131.183 11.49 131.373 12.55 131.373 13.71ZM120.873 13.71C120.873 14.93 121.103 15.87 121.563 16.53C122.043 17.17 122.703 17.49 123.543 17.49C124.383 17.49 125.023 17.16 125.463 16.5C125.923 15.84 126.153 14.91 126.153 13.71C126.153 12.51 125.923 11.59 125.463 10.95C125.003 10.29 124.353 9.96 123.513 9.96C122.673 9.96 122.023 10.29 121.563 10.95C121.103 11.59 120.873 12.51 120.873 13.71Z" fill="url(#paint8_linear)"/>
<path d="M140.551 5.97C141.751 5.97 142.861 6.13 143.881 6.45001C144.921 6.75 145.811 7.22001 146.551 7.86C147.291 8.5 147.871 9.31001 148.291 10.29C148.711 11.25 148.921 12.4 148.921 13.74C148.921 15.02 148.741 16.14 148.381 17.1C148.021 18.06 147.511 18.87 146.851 19.53C146.191 20.17 145.391 20.65 144.451 20.97C143.531 21.29 142.501 21.45 141.361 21.45C140.501 21.45 139.701 21.32 138.961 21.06V26.04C138.761 26.1 138.441 26.16 138.001 26.22C137.561 26.3 137.111 26.34 136.651 26.34C136.211 26.34 135.811 26.31 135.451 26.25C135.111 26.19 134.821 26.07 134.581 25.89C134.341 25.71 134.161 25.46 134.041 25.14C133.921 24.84 133.861 24.44 133.861 23.94V9.54C133.861 9 133.971 8.56001 134.191 8.22C134.431 7.88 134.751 7.57 135.151 7.29C135.771 6.89 136.541 6.57 137.461 6.33C138.381 6.09 139.411 5.97 140.551 5.97ZM140.611 17.43C142.671 17.43 143.701 16.2 143.701 13.74C143.701 12.46 143.441 11.51 142.921 10.89C142.421 10.27 141.691 9.96 140.731 9.96C140.351 9.96 140.011 10.01 139.711 10.11C139.411 10.19 139.151 10.29 138.931 10.41V17.01C139.171 17.13 139.431 17.23 139.711 17.31C139.991 17.39 140.291 17.43 140.611 17.43Z" fill="url(#paint9_linear)"/>
<defs>
<linearGradient id="paint0_linear" x1="0.620116" y1="13.4849" x2="148.921" y2="13.4849" gradientUnits="userSpaceOnUse">
<stop offset="0.265625" stop-color="#FF2012"/>
<stop offset="1" stop-color="#FFB800"/>
</linearGradient>
<linearGradient id="paint1_linear" x1="0.620116" y1="13.4849" x2="148.921" y2="13.4849" gradientUnits="userSpaceOnUse">
<stop offset="0.265625" stop-color="#FF2012"/>
<stop offset="1" stop-color="#FFB800"/>
</linearGradient>
<linearGradient id="paint2_linear" x1="0.620116" y1="13.4849" x2="148.921" y2="13.4849" gradientUnits="userSpaceOnUse">
<stop offset="0.265625" stop-color="#FF2012"/>
<stop offset="1" stop-color="#FFB800"/>
</linearGradient>
<linearGradient id="paint3_linear" x1="0.620116" y1="13.4849" x2="148.921" y2="13.4849" gradientUnits="userSpaceOnUse">
<stop offset="0.265625" stop-color="#FF2012"/>
<stop offset="1" stop-color="#FFB800"/>
</linearGradient>
<linearGradient id="paint4_linear" x1="0.620116" y1="13.4849" x2="148.921" y2="13.4849" gradientUnits="userSpaceOnUse">
<stop offset="0.265625" stop-color="#FF2012"/>
<stop offset="1" stop-color="#FFB800"/>
</linearGradient>
<linearGradient id="paint5_linear" x1="0.620116" y1="13.4849" x2="148.921" y2="13.4849" gradientUnits="userSpaceOnUse">
<stop offset="0.265625" stop-color="#FF2012"/>
<stop offset="1" stop-color="#FFB800"/>
</linearGradient>
<linearGradient id="paint6_linear" x1="0.620116" y1="13.4849" x2="148.921" y2="13.4849" gradientUnits="userSpaceOnUse">
<stop offset="0.265625" stop-color="#FF2012"/>
<stop offset="1" stop-color="#FFB800"/>
</linearGradient>
<linearGradient id="paint7_linear" x1="0.620116" y1="13.4849" x2="148.921" y2="13.4849" gradientUnits="userSpaceOnUse">
<stop offset="0.265625" stop-color="#FF2012"/>
<stop offset="1" stop-color="#FFB800"/>
</linearGradient>
<linearGradient id="paint8_linear" x1="0.620116" y1="13.4849" x2="148.921" y2="13.4849" gradientUnits="userSpaceOnUse">
<stop offset="0.265625" stop-color="#FF2012"/>
<stop offset="1" stop-color="#FFB800"/>
</linearGradient>
<linearGradient id="paint9_linear" x1="0.620116" y1="13.4849" x2="148.921" y2="13.4849" gradientUnits="userSpaceOnUse">
<stop offset="0.265625" stop-color="#FF2012"/>
<stop offset="1" stop-color="#FFB800"/>
</linearGradient>
</defs>
</svg>
