<svg width="90" height="30" viewBox="0 0 90 30" fill="none" xmlns="http://www.w3.org/2000/svg">
<g clip-path="url(#clip0)">
<path d="M89.6795 7.26176C90.9018 14.0882 71.8308 23.0275 47.0785 27.2279C22.3299 31.4282 1.27614 29.2973 0.0556875 22.4672C-1.16477 15.6408 17.9118 6.70328 42.6604 2.50474C67.4108 -1.69923 88.4609 0.433479 89.6795 7.26176Z" fill="#034EA2"/>
<path d="M66.3851 17.3939L66.259 10.2964H68.5553V19.2429H65.2537L62.9612 11.9013H62.9111L63.0391 19.2429H60.7558V10.2964H64.202L66.3351 17.3939H66.3851Z" fill="white"/>
<path d="M24.6335 11.135L23.363 19.3369H20.8572L22.5766 10.2964H26.7035L28.4173 19.3369H25.9208L24.6855 11.135H24.6335Z" fill="white"/>
<path d="M35.4526 17.2078L36.5989 10.2964H40.3827L40.583 19.3369H38.2645L38.2033 11.2091H38.155L36.6044 19.3369H34.2507L32.6982 11.2091H32.6482L32.5907 19.3369H30.2666L30.4725 10.2964H34.2581L35.4025 17.2078H35.4526Z" fill="white"/>
<path d="M16.951 16.7867C17.0419 17.0054 17.0141 17.2873 16.9714 17.4572C16.8935 17.7572 16.6839 18.0645 16.0681 18.0645C15.4857 18.0645 15.1333 17.7392 15.1333 17.2439V16.3692H12.6442L12.6423 17.0686C12.6423 19.0839 14.2708 19.6929 16.0162 19.6929C17.6948 19.6929 19.0766 19.1345 19.2955 17.6271C19.4086 16.8463 19.3233 16.3348 19.2862 16.1414C18.8949 14.2491 15.3726 13.6834 15.1111 12.6261C15.0666 12.4453 15.0795 12.252 15.1018 12.1489C15.1667 11.8616 15.3689 11.5435 15.9494 11.5435C16.491 11.5435 16.8119 11.8706 16.8119 12.364C16.8119 12.5303 16.8119 12.9225 16.8119 12.9225H19.1249V12.2881C19.1249 10.3181 17.3109 10.0108 15.9977 10.0108C14.3469 10.0108 12.9985 10.5422 12.7518 12.0134C12.685 12.42 12.6757 12.7815 12.7722 13.2352C13.1784 15.0805 16.4725 15.6155 16.951 16.7867Z" fill="white"/>
<path d="M47.1194 16.7704C47.2102 16.9873 47.1806 17.262 47.1398 17.4319C47.0637 17.7319 46.856 18.0338 46.2439 18.0338C45.6708 18.0338 45.3202 17.7084 45.3202 17.2241L45.3183 16.3565H42.8551L42.8514 17.0469C42.8514 19.0423 44.4651 19.6441 46.192 19.6441C47.852 19.6441 49.2209 19.0929 49.4379 17.6C49.551 16.8246 49.4713 16.3204 49.4305 16.1306C49.041 14.2563 45.5558 13.6961 45.2961 12.6478C45.2516 12.467 45.2646 12.2773 45.2868 12.1797C45.3536 11.8887 45.552 11.5796 46.127 11.5796C46.6649 11.5796 46.9784 11.8977 46.9784 12.3893C46.9784 12.5538 46.9784 12.9424 46.9784 12.9424H49.2747V12.3134C49.2747 10.365 47.4755 10.0596 46.1734 10.0596C44.5412 10.0596 43.2039 10.5837 42.9627 12.0459C42.896 12.4472 42.8885 12.8014 42.985 13.2532C43.3838 15.0805 46.6464 15.6119 47.1194 16.7704Z" fill="white"/>
<path d="M54.9114 17.985C55.555 17.985 55.7553 17.5512 55.7998 17.3289C55.8184 17.2313 55.8239 17.1012 55.8221 16.9837V10.2928H58.1684V16.7776C58.174 16.9439 58.1573 17.2855 58.148 17.3705C57.9829 19.0586 56.6141 19.6062 54.9095 19.6062C53.2031 19.6062 51.8324 19.0586 51.6692 17.3705C51.6618 17.2855 51.6451 16.9421 51.6488 16.7776V10.2928H53.9933V16.9819C53.9933 17.0994 53.997 17.2313 54.0155 17.3271C54.0674 17.5494 54.2622 17.985 54.9114 17.985Z" fill="white"/>
<path d="M74.2661 17.8892C74.9376 17.8892 75.1731 17.4753 75.2158 17.2349C75.2325 17.1319 75.2381 17.0054 75.2362 16.8915V15.5793H74.2847V14.26H77.5751V16.6873C77.5732 16.8572 77.5695 16.9819 77.5417 17.2837C77.3878 18.9284 75.9225 19.5158 74.2791 19.5158C72.6321 19.5158 71.1705 18.9284 71.0128 17.2837C70.9869 16.9819 70.9831 16.8572 70.9794 16.6873L70.9813 12.8809C70.9813 12.7201 71.0017 12.4363 71.0202 12.2845C71.2261 10.5946 72.6321 10.0506 74.2791 10.0506C75.9243 10.0506 77.3655 10.591 77.5361 12.2845C77.5658 12.5719 77.5565 12.8809 77.5565 12.8809V13.1828H75.2176V12.6767C75.2195 12.6785 75.2139 12.4616 75.188 12.3333C75.149 12.1327 74.971 11.6736 74.2624 11.6736C73.5854 11.6736 73.3888 12.1074 73.3387 12.3333C73.3109 12.4526 73.2998 12.6134 73.2998 12.7598V16.8951C73.2979 17.009 73.3053 17.1355 73.3239 17.2385C73.361 17.4753 73.5947 17.8892 74.2661 17.8892Z" fill="white"/>
</g>
<defs>
<clipPath id="clip0">
<rect width="89.7351" height="29.0319" fill="white" transform="translate(0 0.348541)"/>
</clipPath>
</defs>
</svg>
