<svg width="36" height="36" viewBox="0 0 36 36" fill="none" xmlns="http://www.w3.org/2000/svg">
<g clip-path="url(#clip0)">
<path fill-rule="evenodd" clip-rule="evenodd" d="M33.85 35.5682H1.3327C0.594882 35.5682 -0.00317383 34.9701 -0.00317383 34.2322V1.71264C-0.00317383 0.974779 0.594882 0.37702 1.3327 0.37702H33.85C34.5878 0.37702 35.1859 0.974779 35.1859 1.71264V34.2322C35.1859 34.9701 34.5878 35.5682 33.85 35.5682Z" fill="#FF6700"/>
<path d="M27.5898 11.4453H24.8214C24.7029 11.4453 24.6069 11.5396 24.6069 11.6558V24.2877C24.6069 24.4029 24.7029 24.4972 24.8214 24.4972H27.5898C27.7074 24.4972 27.8047 24.4029 27.8047 24.2877V11.6558C27.8047 11.5396 27.7074 11.4453 27.5898 11.4453Z" fill="white"/>
<path d="M18.1374 11.445H7.59213C7.4736 11.445 7.3783 11.5393 7.3783 11.6555V24.2874C7.3783 24.4026 7.4736 24.4969 7.59213 24.4969H10.3612C10.4791 24.4969 10.5767 24.4026 10.5767 24.2874V14.3732C10.5767 14.2587 10.672 14.1638 10.7906 14.1638H16.7554C18.4327 14.1638 18.9089 15.4486 18.9089 16.2773V24.2874C18.9089 24.4026 19.0052 24.4969 19.1237 24.4969H21.8911C22.009 24.4969 22.1056 24.4026 22.1056 24.2874V15.3263C22.1056 14.5871 22.0167 13.5242 21.063 12.5887C20.0652 11.6121 19.155 11.445 18.1374 11.445" fill="white"/>
<path d="M16.1977 16.4767H13.2906C13.172 16.4767 13.0747 16.571 13.0747 16.6865V24.2887C13.0747 24.4036 13.172 24.4979 13.2906 24.4979H16.1977C16.3152 24.4979 16.4115 24.4036 16.4115 24.2887V16.6865C16.4115 16.571 16.3152 16.4767 16.1977 16.4767Z" fill="white"/>
</g>
<defs>
<clipPath id="clip0">
<rect width="35.1902" height="35.1902" fill="white" transform="translate(0 0.380493)"/>
</clipPath>
</defs>
</svg>
