<svg width="36" height="42" viewBox="0 0 36 42" fill="none" xmlns="http://www.w3.org/2000/svg">
<g clip-path="url(#clip0)">
<path d="M34.4527 32.2236C33.8209 33.6682 33.073 34.9979 32.2066 36.2205C31.0255 37.8871 30.0584 39.0408 29.3132 39.6814C28.1579 40.733 26.92 41.2715 25.5945 41.3021C24.643 41.3021 23.4954 41.0341 22.1596 40.4905C20.8194 39.9494 19.5878 39.6814 18.4616 39.6814C17.2805 39.6814 16.0138 39.9494 14.6589 40.4905C13.3019 41.0341 12.2088 41.3174 11.373 41.3455C10.1019 41.3991 8.83495 40.8453 7.57031 39.6814C6.76315 38.9846 5.75355 37.7901 4.54409 36.098C3.24645 34.2909 2.1796 32.1955 1.34381 29.8065C0.44871 27.2262 0 24.7275 0 22.3084C0 19.5374 0.604985 17.1474 1.81676 15.1446C2.76911 13.5359 4.03607 12.2669 5.62177 11.3353C7.20747 10.4037 8.92083 9.92898 10.766 9.8986C11.7756 9.8986 13.0995 10.2077 14.7448 10.8151C16.3854 11.4246 17.4388 11.7337 17.9007 11.7337C18.246 11.7337 19.4163 11.3723 21.4001 10.6518C23.2762 9.98359 24.8596 9.70692 26.1567 9.81591C29.6716 10.0967 32.3123 11.468 34.0685 13.9386C30.9249 15.8238 29.3699 18.4641 29.4008 21.8513C29.4292 24.4896 30.3963 26.6851 32.2968 28.4283C33.1581 29.2374 34.12 29.8627 35.1902 30.3068C34.9581 30.9729 34.7132 31.611 34.4527 32.2236V32.2236ZM26.3914 0.827725C26.3914 2.89562 25.6281 4.82641 24.1066 6.61353C22.2705 8.73807 20.0496 9.96573 17.6413 9.77201C17.6106 9.52392 17.5928 9.26282 17.5928 8.98845C17.5928 7.00327 18.466 4.87874 20.0166 3.14164C20.7908 2.26212 21.7753 1.53081 22.9693 0.947426C24.1607 0.37275 25.2877 0.0549421 26.3475 0.000518799C26.3785 0.276965 26.3914 0.553428 26.3914 0.827698V0.827725Z" fill="black"/>
</g>
<defs>
<clipPath id="clip0">
<rect width="35.1902" height="41.3485" fill="white"/>
</clipPath>
</defs>
</svg>
